<svg xmlns="http://www.w3.org/2000/svg" width="43.727" height="35" viewBox="0 0 43.727 35">
  <g id="icon-streaming" transform="translate(-6 168)">
    <path id="Path_953" data-name="Path 953" d="M6.7-167.3l-.7.7V-150.1c0,12.511.073,16.568.292,16.786.413.413,42.731.413,43.144,0,.219-.219.292-4.276.292-16.786v-16.495l-.7-.7-.7-.7H7.409ZM48-166.2a4.591,4.591,0,0,1,.219,2.138l-.073,1.773H7.579l-.073-1.773a4.591,4.591,0,0,1,.219-2.138C8.138-166.712,47.589-166.712,48-166.2Zm.146,18.608v13H7.579l-.073-12.754c-.024-7.021,0-12.9.073-13.07.073-.243,4.276-.292,20.333-.243l20.236.073Z" transform="translate(0 0)"/>
    <path id="Path_954" data-name="Path 954" d="M18.578-155.6c-.431.539.081,1.212.943,1.212a1.443,1.443,0,0,0,.943-.4c.431-.539-.081-1.212-.943-1.212A1.443,1.443,0,0,0,18.578-155.6Z" transform="translate(-9.075 -8.767)"/>
    <path id="Path_955" data-name="Path 955" d="M33.578-155.6c-.431.539.081,1.212.943,1.212s1.374-.674.943-1.212a1.443,1.443,0,0,0-.943-.4A1.443,1.443,0,0,0,33.578-155.6Z" transform="translate(-20.646 -8.767)"/>
    <path id="Path_956" data-name="Path 956" d="M48.578-155.6c-.431.539.081,1.212.943,1.212s1.374-.674.943-1.212a1.443,1.443,0,0,0-.943-.4A1.443,1.443,0,0,0,48.578-155.6Z" transform="translate(-32.17 -8.767)"/>
    <path id="Path_957" data-name="Path 957" d="M63.452-155.6c-.269.323-.269.485,0,.808.3.35,2.263.4,14.683.4s14.386-.054,14.683-.4c.269-.323.269-.485,0-.808-.3-.35-2.263-.4-14.683-.4S63.748-155.946,63.452-155.6Z" transform="translate(-46.592 -8.767)"/>
    <path id="Path_958" data-name="Path 958" d="M71.2-122.243a8.139,8.139,0,0,0-5.065,7.921,8.346,8.346,0,0,0,4.661,6.816,8.372,8.372,0,0,0,6.735,0,8.573,8.573,0,0,0,3.906-3.906,8.372,8.372,0,0,0,0-6.735A8.045,8.045,0,0,0,71.2-122.243Zm5.388,1.563a6.338,6.338,0,0,1,3.395,3.341,6.206,6.206,0,0,1-1.185,6.978,7.593,7.593,0,0,1-4.634,2.048,7.593,7.593,0,0,1-4.634-2.048,7.407,7.407,0,0,1-1.832-4.284C67.675-119.252,72.5-122.539,76.592-120.68Z" transform="translate(-46.299 -35.051)"/>
    <path id="Path_959" data-name="Path 959" d="M87.323-107.625c-.216.216-.323,1.455-.323,3.745,0,2.775.081,3.475.431,3.772a.58.58,0,0,0,.862.027,7.954,7.954,0,0,1,.862-.512,8.385,8.385,0,0,0,1.374-.943,4.8,4.8,0,0,1,1.239-.754,4.449,4.449,0,0,0,1.7-1.616,4.449,4.449,0,0,0-1.7-1.616,5.247,5.247,0,0,1-1.266-.808,4.119,4.119,0,0,0-1.293-.808,1.156,1.156,0,0,1-.593-.4A.783.783,0,0,0,87.323-107.625Zm2.505,2.8a1.385,1.385,0,0,1,.674.916c0,.458-1.051,1.347-1.616,1.347-.135,0-.269-.593-.269-1.347C88.616-105.362,88.805-105.5,89.829-104.823Z" transform="translate(-61.653 -45.892)"/>
    <path id="Path_960" data-name="Path 960" d="M23.133-53.192c-.764.754-.979.808-2.626.808-1.289,0-1.862.108-2.077.4a.546.546,0,0,0,0,.808c.215.3.788.4,2.077.4,1.647,0,1.862.054,2.626.808a2.37,2.37,0,0,0,1.5.808,2.37,2.37,0,0,0,1.5-.808l.836-.808H40.944c12.1,0,13.991-.054,14.254-.4a.546.546,0,0,0,0-.808c-.263-.35-2.149-.4-14.254-.4H26.977l-.836-.808a2.37,2.37,0,0,0-1.5-.808A2.37,2.37,0,0,0,23.133-53.192Zm1.982,1.239c.263.323.239.485-.072.862-.382.4-.43.4-.812,0-.31-.377-.334-.539-.072-.862.167-.242.382-.431.478-.431S24.947-52.195,25.114-51.953Z" transform="translate(-8.95 -87.102)"/>
  </g>
</svg>
