<?xml version="1.0" standalone="no"?>
<!DOCTYPE svg PUBLIC "-//W3C//DTD SVG 20010904//EN"
 "http://www.w3.org/TR/2001/REC-SVG-20010904/DTD/svg10.dtd">
<svg version="1.0" xmlns="http://www.w3.org/2000/svg"
 width="193.000000pt" height="269.000000pt" viewBox="0 0 193.000000 269.000000"
 preserveAspectRatio="xMidYMid meet">

<g transform="translate(0.000000,269.000000) scale(0.100000,-0.100000)"
fill="#000000" stroke="none">
<path d="M1422 2593 c-53 -26 -102 -106 -102 -167 0 -71 58 -160 120 -186 46
-19 123 -8 165 24 66 50 94 153 64 233 -13 34 -55 80 -91 99 -36 19 -115 17
-156 -3z"/>
<path d="M700 2154 c-166 -36 -338 -171 -415 -327 -51 -105 -56 -167 -53 -662
l3 -430 163 -3 162 -2 0 275 0 275 115 0 115 0 0 -275 0 -275 165 0 165 0 -2
448 -3 447 -267 5 -267 5 18 41 c63 141 311 196 729 162 9 -1 12 -119 12 -555
l0 -553 160 0 160 0 0 711 c0 676 -1 711 -17 698 -15 -11 -14 -10 1 9 l19 22
-449 -1 c-344 -1 -464 -4 -514 -15z m910 -48 c0 -2 -8 -10 -17 -17 -16 -13
-17 -12 -4 4 13 16 21 21 21 13z"/>
<path d="M220 355 l0 -225 40 0 40 0 0 95 0 94 88 3 87 3 0 35 0 35 -87 3 -88
3 0 54 0 55 95 0 95 0 0 35 0 35 -135 0 -135 0 0 -225z"/>
<path d="M570 545 c0 -33 2 -35 35 -35 33 0 35 2 35 35 0 33 -2 35 -35 35 -33
0 -35 -2 -35 -35z"/>
<path d="M1020 355 l0 -225 35 0 34 0 3 153 3 152 72 -109 71 -109 69 103 68
103 3 -146 3 -147 39 0 40 0 0 225 0 225 -35 0 c-34 0 -38 -4 -106 -110 -39
-61 -75 -110 -79 -110 -4 0 -40 50 -79 110 -68 106 -72 110 -106 110 l-35 0 0
-225z"/>
<path d="M1570 535 c0 -33 2 -35 35 -35 33 0 35 2 35 35 0 33 -2 35 -35 35
-33 0 -35 -2 -35 -35z"/>
<path d="M777 523 c-4 -3 -7 -23 -7 -44 0 -34 -3 -38 -27 -41 -23 -2 -29 -8
-31 -35 -3 -31 -1 -33 26 -33 l30 0 4 -87 c5 -102 21 -136 74 -153 34 -12 89
-6 99 10 3 5 0 19 -6 33 -8 18 -17 23 -35 19 -43 -8 -54 13 -54 99 l0 79 45 0
c45 0 45 0 45 35 0 35 0 35 -45 35 l-45 0 0 45 c0 44 0 45 -33 45 -19 0 -37
-3 -40 -7z"/>
<path d="M570 280 l0 -150 40 0 40 0 0 150 0 150 -40 0 -40 0 0 -150z"/>
<path d="M1560 280 l0 -150 40 0 40 0 0 150 0 150 -40 0 -40 0 0 -150z"/>
</g>
</svg>
