<?xml version="1.0" standalone="no"?>
<!DOCTYPE svg PUBLIC "-//W3C//DTD SVG 20010904//EN"
 "http://www.w3.org/TR/2001/REC-SVG-20010904/DTD/svg10.dtd">
<svg version="1.0" xmlns="http://www.w3.org/2000/svg"
 width="193.000000pt" height="269.000000pt" viewBox="0 0 193.000000 269.000000"
 preserveAspectRatio="xMidYMid meet">
<metadata>
Created by potrace 1.16, written by Peter Selinger 2001-2019
</metadata>
<g transform="translate(0.000000,269.000000) scale(0.100000,-0.100000)"
fill="#000000" stroke="none">
<path d="M1422 2593 c-53 -26 -102 -106 -102 -167 0 -71 58 -160 120 -186 46
-19 123 -8 165 24 66 50 94 153 64 233 -13 34 -55 80 -91 99 -36 19 -115 17
-156 -3z"/>
<path d="M681 2150 c-40 -11 -103 -36 -140 -56 -86 -48 -217 -179 -253 -256
-57 -116 -58 -132 -58 -640 l0 -468 165 0 165 0 2 272 3 273 113 3 112 3 0
-276 0 -275 165 0 165 0 0 450 0 450 -265 0 c-251 0 -265 1 -265 18 0 33 55
96 108 125 100 54 186 70 397 70 105 1 202 -2 218 -6 l27 -7 0 -550 0 -550
160 0 160 0 0 711 c0 676 -1 711 -17 698 -15 -11 -14 -10 1 9 l19 22 -454 -1
c-416 0 -460 -2 -528 -19z"/>
<path d="M220 355 l0 -225 40 0 40 0 0 95 0 95 90 0 90 0 0 40 0 40 -90 0 -90
0 0 55 0 55 95 0 95 0 0 35 0 35 -135 0 -135 0 0 -225z"/>
<path d="M1020 355 l0 -225 35 0 35 0 0 145 c0 80 3 145 8 145 4 0 37 -46 74
-102 l66 -101 69 103 68 103 3 -146 3 -147 39 0 40 0 0 225 0 225 -37 0 c-37
-1 -39 -3 -107 -110 -39 -61 -73 -110 -76 -110 -3 0 -37 49 -76 110 -68 107
-70 109 -106 110 l-38 0 0 -225z"/>
<path d="M770 485 c0 -43 -1 -45 -30 -45 -28 0 -30 -3 -30 -35 0 -32 2 -35 30
-35 l30 0 0 -67 c0 -38 5 -85 11 -106 14 -50 59 -80 113 -73 50 6 60 16 45 49
-10 21 -17 25 -39 20 -38 -7 -50 18 -50 106 l0 71 45 0 c45 0 45 0 45 35 0 35
0 35 -45 35 l-45 0 0 45 0 45 -40 0 -40 0 0 -45z"/>
<path d="M570 286 l0 -156 40 0 41 0 -3 153 -3 152 -37 3 -38 3 0 -155z"/>
<path d="M1567 433 c-4 -3 -7 -73 -7 -155 l0 -148 40 0 40 0 0 155 0 155 -33
0 c-19 0 -37 -3 -40 -7z"/>
</g>
</svg>
