<svg xmlns="http://www.w3.org/2000/svg" width="154.811" height="136.818" viewBox="0 0 154.811 136.818">
  <g id="analytics" transform="translate(-473.594 -972.182)">
    <path id="Path_102" data-name="Path 102" d="M78.787,113.368c35.993,0,51.554-26.95,51.554,9.043s-30.863,65.451-66.855,65.451S0,158.4,0,122.411,42.794,113.368,78.787,113.368Z" transform="matrix(0.875, -0.485, 0.485, 0.875, 423.33, 944.693)" fill="#fdf1d0" opacity="0.587"/>
    <g id="bar-graph" transform="translate(498 980.469)">
      <path id="Path_34" data-name="Path 34" d="M93.367,216.331H87.9v-60.1a1.388,1.388,0,0,0-1.388-1.388H81.917a1.388,1.388,0,0,0,0,2.776h3.2V216.33H72.245V157.619h3.624a1.388,1.388,0,1,0,0-2.776H70.857a1.388,1.388,0,0,0-1.388,1.388v8.325H55.2a1.388,1.388,0,0,0-1.388,1.388v9.047H39.551a1.388,1.388,0,0,0-1.388,1.388v9.047H23.9a1.388,1.388,0,0,0-1.388,1.388v7.361H8.247a1.388,1.388,0,0,0-1.388,1.388v8.311a1.388,1.388,0,0,0,2.776,0v-6.923H22.51V216.33H9.635v-6.407a1.388,1.388,0,0,0-2.776,0v6.407H1.388a1.388,1.388,0,1,0,0,2.776H93.367a1.388,1.388,0,0,0,0-2.776ZM25.287,188.2H38.163v28.128H25.287Zm15.653-1.388v-9.047H53.816v38.564H40.939Zm15.653,29.516v-49H69.469v49Z" transform="translate(0 -118.106)"/>
      <path id="Path_35" data-name="Path 35" d="M33.241,69.937a4.129,4.129,0,0,0,2.405-.767L98.16,24.861a4.164,4.164,0,0,0,8.265.882l1.6-9.367a4.163,4.163,0,0,0-3.406-4.8l-9.367-1.6a4.165,4.165,0,0,0-1.905,8.091L69.866,34.707a1.388,1.388,0,1,0,1.605,2.265L97.645,18.421a1.388,1.388,0,0,0-.569-2.5l-2.758-.47a1.392,1.392,0,0,1-1.135-1.6,1.388,1.388,0,0,1,1.6-1.135l9.367,1.6a1.388,1.388,0,0,1,1.135,1.6l-1.6,9.367a1.381,1.381,0,0,1-1.365,1.154,1.353,1.353,0,0,1-.235-.021,1.388,1.388,0,0,1-1.135-1.6l.47-2.76a1.388,1.388,0,0,0-2.171-1.365L34.039,66.907a1.389,1.389,0,0,1-1.933-.33,1.391,1.391,0,0,1,.331-1.937L65.422,41.26A1.388,1.388,0,1,0,63.817,39L30.832,62.375a4.164,4.164,0,0,0,2.409,7.562Z" transform="translate(-23.693)"/>
    </g>
  </g>
</svg>
