<svg xmlns="http://www.w3.org/2000/svg" width="154.811" height="136.818" viewBox="0 0 154.811 136.818">
  <g id="anytime" transform="translate(-153.095 -972.182)">
    <path id="Path_101" data-name="Path 101" d="M78.787,113.368c35.993,0,51.554-26.95,51.554,9.043s-30.863,65.451-66.855,65.451S0,158.4,0,122.411,42.794,113.368,78.787,113.368Z" transform="matrix(0.875, -0.485, 0.485, 0.875, 102.83, 944.693)" fill="#fdf1d0" opacity="0.587"/>
    <g id="XMLID_806_" transform="translate(185 984.09)">
      <g id="XMLID_386_" transform="translate(0 10.262)">
        <path id="XMLID_389_" d="M90.58,58.013A35.777,35.777,0,0,0,62.76,26.641v-4.5A6.027,6.027,0,0,0,61.3,10.262H48.542a6.027,6.027,0,0,0-1.455,11.875v4.516a35.592,35.592,0,0,0-17.456,9.6,35.978,35.978,0,0,0-3.01,3.416c-.044,0-.089-.007-.134-.007H13.856a1.773,1.773,0,0,0,0,3.545H24.21a35.535,35.535,0,0,0-3.145,6.813H1.773a1.773,1.773,0,1,0,0,3.545h18.29a36.041,36.041,0,0,0-.88,6.813H11.345a1.773,1.773,0,1,0,0,3.545h7.9a35.988,35.988,0,0,0,1.107,6.813H8.863a1.773,1.773,0,0,0,0,3.545H21.478A35.8,35.8,0,0,0,51.411,97.207q1.756.173,3.513.173A35.892,35.892,0,0,0,74.465,91.6a1.773,1.773,0,0,0-1.935-2.971,32.261,32.261,0,1,1,9.5-9.514,1.773,1.773,0,1,0,2.973,1.931A35.921,35.921,0,0,0,90.58,58.013ZM46.061,16.289a2.484,2.484,0,0,1,2.482-2.482H61.3a2.482,2.482,0,0,1,0,4.963H48.542A2.484,2.484,0,0,1,46.061,16.289Zm4.572,9.755V22.316h8.582v3.722A36.117,36.117,0,0,0,50.633,26.044Z" transform="translate(0 -10.262)"/>
        <path id="XMLID_391_" d="M437.543,425.5a1.773,1.773,0,1,0,1.253.519A1.782,1.782,0,0,0,437.543,425.5Z" transform="translate(-358.526 -351.895)"/>
        <path id="XMLID_394_" d="M182.37,144.609a27.5,27.5,0,1,0,27.5,27.5A27.529,27.529,0,0,0,182.37,144.609Zm0,51.451a23.953,23.953,0,1,1,23.953-23.953A23.98,23.98,0,0,1,182.37,196.06Z" transform="translate(-127.42 -120.795)"/>
        <path id="XMLID_397_" d="M277.637,219.93l-8.78,8.779a5.494,5.494,0,0,0-4.866,0l-3.929-3.929a1.773,1.773,0,1,0-2.507,2.507l3.929,3.929a5.508,5.508,0,1,0,9.88,0l8.522-8.522h0l.258-.258a1.773,1.773,0,0,0-2.507-2.507Zm-11.213,15.682a1.963,1.963,0,1,1,1.963-1.963A1.965,1.965,0,0,1,266.425,235.613Z" transform="translate(-211.474 -182.338)"/>
        <path id="XMLID_398_" d="M401.07,289.86h-1.642a1.773,1.773,0,1,0,0,3.545h1.642a1.773,1.773,0,1,0,0-3.545Z" transform="translate(-327.167 -240.299)"/>
        <path id="XMLID_399_" d="M196.5,289.616h-1.642a1.773,1.773,0,1,0,0,3.545H196.5a1.773,1.773,0,0,0,0-3.545Z" transform="translate(-158.856 -240.098)"/>
        <path id="XMLID_400_" d="M301.9,188.006a1.773,1.773,0,0,0,1.773-1.773v-1.642a1.773,1.773,0,1,0-3.545,0v1.642A1.773,1.773,0,0,0,301.9,188.006Z" transform="translate(-246.923 -152.232)"/>
        <path id="XMLID_424_" d="M301.652,387.393a1.773,1.773,0,0,0-1.773,1.773v1.642a1.773,1.773,0,0,0,3.545,0v-1.642A1.773,1.773,0,0,0,301.652,387.393Z" transform="translate(-246.723 -320.543)"/>
        <path id="XMLID_425_" d="M1.773,351.44a1.773,1.773,0,1,0,1.253,3.026,1.773,1.773,0,0,0-1.253-3.026Z" transform="translate(0 -290.963)"/>
      </g>
    </g>
  </g>
</svg>
