<svg xmlns="http://www.w3.org/2000/svg" width="79.199" height="76.132" viewBox="0 0 79.199 76.132">
  <g id="bargraph" transform="translate(0 -9.916)">
    <path id="Path_1106" data-name="Path 1106" d="M78.039,206.236H73.467V156a1.16,1.16,0,0,0-1.16-1.16H68.469a1.16,1.16,0,0,0,0,2.32h2.678v49.073H60.385V157.163h3.029a1.16,1.16,0,1,0,0-2.32H59.225a1.16,1.16,0,0,0-1.16,1.16v6.958H46.141a1.16,1.16,0,0,0-1.16,1.16v7.562H33.058a1.16,1.16,0,0,0-1.16,1.16v7.562H19.975a1.16,1.16,0,0,0-1.16,1.16v6.153H6.893a1.16,1.16,0,0,0-1.16,1.16v6.947a1.16,1.16,0,0,0,2.32,0v-5.787H18.814v16.2H8.053v-5.355a1.16,1.16,0,1,0-2.32,0v5.356H1.16a1.16,1.16,0,1,0,0,2.32H78.039a1.16,1.16,0,1,0,0-2.32Zm-56.9-23.511H31.9v23.511H21.135Zm13.083-1.16V174H44.981v32.233H34.218ZM47.3,206.236V165.282H58.064v40.955Z" transform="translate(0 -122.509)"/>
    <path id="Path_1107" data-name="Path 1107" d="M32.556,60.083a3.451,3.451,0,0,0,2.01-.641L86.818,22.407a3.48,3.48,0,0,0,6.908.737l1.335-7.829A3.48,3.48,0,0,0,92.214,11.3L84.385,9.966a3.481,3.481,0,0,0-1.593,6.763L63.169,30.637a1.16,1.16,0,1,0,1.342,1.893L86.388,17.025a1.16,1.16,0,0,0-.476-2.09l-2.3-.393a1.163,1.163,0,0,1-.949-1.34A1.16,1.16,0,0,1,84,12.253l7.829,1.335a1.16,1.16,0,0,1,.949,1.337l-1.335,7.83a1.155,1.155,0,0,1-1.141.964,1.131,1.131,0,0,1-.2-.017,1.16,1.16,0,0,1-.949-1.338l.393-2.307a1.16,1.16,0,0,0-1.814-1.141L33.224,57.55a1.161,1.161,0,0,1-1.616-.276,1.163,1.163,0,0,1,.277-1.619l27.57-19.541a1.16,1.16,0,1,0-1.342-1.893L30.543,53.763a3.48,3.48,0,0,0,2.013,6.32Z" transform="translate(-24.576)"/>
  </g>
</svg>
