<svg xmlns="http://www.w3.org/2000/svg" width="143" height="143" viewBox="0 0 143 143">
  <g id="basic-details" transform="translate(-909 -2387)">
    <circle id="Ellipse_119" data-name="Ellipse 119" cx="71.5" cy="71.5" r="71.5" transform="translate(909 2387)" fill="#e6e6e6" opacity="0.46"/>
    <circle id="Ellipse_120" data-name="Ellipse 120" cx="58.5" cy="58.5" r="58.5" transform="translate(922 2400)" fill="#ea691e"/>
    <g id="sign-in" transform="translate(948.92 2429.9)">
      <path id="Path_1108" data-name="Path 1108" d="M11.231,19.462a5.231,5.231,0,1,1,5.231-5.231A5.236,5.236,0,0,1,11.231,19.462Zm0-6.539a1.308,1.308,0,1,0,1.308,1.308A1.31,1.31,0,0,0,11.231,12.923Z" transform="translate(9.694 11.925)" fill="#fff"/>
      <path id="Path_1109" data-name="Path 1109" d="M22.963,25.77A1.962,1.962,0,0,1,21,23.808V21.193a3.274,3.274,0,0,0-3.269-3.269H11.193a3.274,3.274,0,0,0-3.269,3.269v2.616a1.962,1.962,0,0,1-3.923,0V21.193A7.2,7.2,0,0,1,11.193,14h6.539a7.2,7.2,0,0,1,7.193,7.193v2.616A1.962,1.962,0,0,1,22.963,25.77Z" transform="translate(6.462 20.003)" fill="#fff"/>
      <path id="Path_1110" data-name="Path 1110" d="M19.961,24.079a1.943,1.943,0,0,1-1.276-.473,1.963,1.963,0,0,1-.212-2.767l2.827-3.3-2.827-3.3a1.963,1.963,0,1,1,2.979-2.555l3.923,4.577a1.963,1.963,0,0,1,0,2.555l-3.923,4.577a1.957,1.957,0,0,1-1.491.688Z" transform="translate(29.081 15.154)" fill="#fff"/>
      <path id="Path_1111" data-name="Path 1111" d="M29.694,16.673H15.962a1.962,1.962,0,0,1,0-3.923H29.694a1.962,1.962,0,1,1,0,3.923Z" transform="translate(22.618 17.983)" fill="#fff"/>
      <path id="Path_1112" data-name="Path 1112" d="M55.581,58.543H7.193A7.2,7.2,0,0,1,0,51.35V8.193A7.2,7.2,0,0,1,7.193,1H55.581a7.2,7.2,0,0,1,7.193,7.193V51.35A7.2,7.2,0,0,1,55.581,58.543ZM7.193,4.923A3.274,3.274,0,0,0,3.923,8.193V51.35A3.274,3.274,0,0,0,7.193,54.62H55.581a3.274,3.274,0,0,0,3.27-3.269V8.193a3.274,3.274,0,0,0-3.27-3.269Z" transform="translate(0 -1)" fill="#fff"/>
      <path id="Path_1113" data-name="Path 1113" d="M60.813,8.423H1.962a1.962,1.962,0,0,1,0-3.923H60.813a1.962,1.962,0,0,1,0,3.923Z" transform="translate(0 4.655)" fill="#fff"/>
    </g>
  </g>
</svg>
