<svg xmlns="http://www.w3.org/2000/svg" width="154.811" height="136.818" viewBox="0 0 154.811 136.818">
  <g id="benefits" transform="translate(-1017.999 -922.182)">
    <path id="Path_103" data-name="Path 103" d="M78.787,113.368c35.993,0,51.554-26.95,51.554,9.043s-30.863,65.451-66.855,65.451S0,158.4,0,122.411,42.794,113.368,78.787,113.368Z" transform="matrix(0.875, -0.485, 0.485, 0.875, 967.734, 894.693)" fill="#fdf1d0" opacity="0.587"/>
    <g id="Group_2675" data-name="Group 2675">
      <g id="Group_2328" data-name="Group 2328" transform="translate(1043.5 939.304)">
        <path id="Path_1074" data-name="Path 1074" d="M86.8,52.129l-3.7-1.184a1.547,1.547,0,0,1-1-1.011,23.835,23.835,0,0,0-3.495-6.912,25.364,25.364,0,0,0-2.335-2.754,32.578,32.578,0,0,0,.8-7.439c-.055-3.346-.724-5.309-2.044-6-.711-.373-2.876-1.506-14.592,3.857a4.262,4.262,0,0,0-.776.462c-.79-.212-1.6-.409-2.409-.585-.1-.021-.2-.04-.3-.061a17.892,17.892,0,0,0,1.608-6.652,1.313,1.313,0,0,0-2.624-.118,15.282,15.282,0,0,1-10,13.664,38.089,38.089,0,0,0-10.572,0A15.294,15.294,0,1,1,54.333,16.162a1.313,1.313,0,0,0,2.346-1.181,17.928,17.928,0,1,0-25.53,23.258h0q-1.225.318-2.429.718a1.314,1.314,0,0,0,.833,2.492,35.248,35.248,0,0,1,22.216,0,1.314,1.314,0,0,0,.833-2.492q-1.2-.4-2.429-.718h0a17.91,17.91,0,0,0,5.452-5.331c.362.07.721.144,1.076.221q.708.154,1.407.328c-.015.057-.03.114-.042.172a15.664,15.664,0,0,0,.124,7.99,9.509,9.509,0,0,0,3.483,4.9,11.049,11.049,0,0,0,6.465,2.052,8.667,8.667,0,0,0,4.19-.969c1.235-.7,2.269-2.173,3.088-4.385q.568.663,1.075,1.357a21.208,21.208,0,0,1,3.11,6.151,4.177,4.177,0,0,0,2.7,2.725L86,54.631a2.326,2.326,0,0,1,1.622,2.222v6.13A2.326,2.326,0,0,1,86,65.2l-5.956,1.908a4.058,4.058,0,0,0-2.271,1.844A26.179,26.179,0,0,1,66.84,78.9a2.058,2.058,0,0,0-1.08,1.451l-1.908,10.1a.59.59,0,0,1-.58.48h-6.2a.591.591,0,0,1-.58-.48l-1.057-5.582a2.064,2.064,0,0,0-2.347-1.66,54.906,54.906,0,0,1-8.182.609,52.364,52.364,0,0,1-6.02-.34,2.081,2.081,0,0,0-2.276,1.67l-1,5.3a.59.59,0,0,1-.58.48h-6.2a.592.592,0,0,1-.58-.484l-1.837-9.54a2.062,2.062,0,0,0-1.06-1.434C16.966,75,12.536,67.528,12.536,57.861a25.249,25.249,0,0,1,3.176-12.837,22.916,22.916,0,0,1,8.537-8.334,1.314,1.314,0,0,0-1.315-2.274A25,25,0,0,0,10.247,53.091h0c-.126-.011-.253-.022-.379-.035a6.54,6.54,0,0,0-.481-2.621A5.38,5.38,0,0,0,5.4,46.952a3.63,3.63,0,0,0-3.418,1.522,3.459,3.459,0,0,0-.657,3.774c.662,1.363,2.362,2.327,5.184,2.933q-.116.174-.256.35a6.445,6.445,0,0,1-4.907,2.6A1.379,1.379,0,0,0,0,59.5v.006a1.375,1.375,0,0,0,1.318,1.372q.141.007.3.007c1.614,0,4.2-.6,6.693-3.716a7.491,7.491,0,0,0,.959-1.549q.372.042.714.073h0c-.045.712-.07,1.434-.07,2.169a27.067,27.067,0,0,0,3.875,14.495,26.554,26.554,0,0,0,10.092,9.312l1.786,9.275a3.219,3.219,0,0,0,3.161,2.619h6.2a3.219,3.219,0,0,0,3.161-2.619l.908-4.8a55.351,55.351,0,0,0,5.811.3,57.7,57.7,0,0,0,8.047-.561l.957,5.056a3.22,3.22,0,0,0,3.161,2.618h6.2a3.22,3.22,0,0,0,3.161-2.619l1.857-9.834A28.637,28.637,0,0,0,80.049,70.272a1.436,1.436,0,0,1,.8-.658L86.8,67.707a4.945,4.945,0,0,0,3.447-4.724v-6.13A4.945,4.945,0,0,0,86.8,52.129ZM74.259,36.519c-.506,4.323-1.862,8.021-3.224,8.793a8.037,8.037,0,0,1-7.809-.917c-2.688-1.966-3.582-5.5-2.587-10.225h0a1.585,1.585,0,0,1,.9-1.1c6.576-3.01,10.367-3.994,11.775-3.994a1.374,1.374,0,0,1,.476.064C74.214,29.593,74.769,32.156,74.259,36.519ZM3.688,51.1c-.136-.28.185-.773.388-1.042a1.048,1.048,0,0,1,.844-.513.986.986,0,0,1,.132.009,2.863,2.863,0,0,1,1.9,1.859,3.988,3.988,0,0,1,.275,1.239C5.407,52.277,3.994,51.734,3.688,51.1Z" transform="translate(0 -5.115)"/>
      </g>
      <g id="Group_2327" data-name="Group 2327" transform="translate(1110.699 986.103)">
        <g id="Group_2326" data-name="Group 2326">
          <path id="Path_1073" data-name="Path 1073" d="M388.5,270.613a1.313,1.313,0,0,0-1.313,1.313,1.668,1.668,0,1,1-3.335,0,1.313,1.313,0,1,0-2.627,0,4.294,4.294,0,1,0,8.589,0A1.313,1.313,0,0,0,388.5,270.613Z" transform="translate(-381.228 -270.613)"/>
        </g>
      </g>
      <path id="Path_1076" data-name="Path 1076" d="M104.236,0H93.525V2.128H97.3a3.2,3.2,0,0,1,3.01,2.128H93.525V6.384h6.787A3.2,3.2,0,0,1,97.3,8.512H93.525V10.64l6.237,6.237,1.5-1.5L96.535,10.64H97.3a5.329,5.329,0,0,0,5.213-4.256h1.721V4.256h-1.721a5.3,5.3,0,0,0-.96-2.128h2.681Z" transform="translate(986.053 949.904)"/>
    </g>
  </g>
</svg>
