<svg xmlns="http://www.w3.org/2000/svg" width="68.836" height="68.836" viewBox="0 0 68.836 68.836">
  <g id="calendar" transform="translate(-2 -2)">
    <path id="Path_1094" data-name="Path 1094" d="M65.1,8.884H59.363V6.589a4.589,4.589,0,1,0-9.178,0V8.884H41.007V6.589a4.589,4.589,0,1,0-9.178,0V8.884H22.651V6.589a4.589,4.589,0,1,0-9.178,0V8.884H7.736A5.736,5.736,0,0,0,2,14.62V60.511a5.736,5.736,0,0,0,5.736,5.736H39.86a1.147,1.147,0,1,0,0-2.295H7.736a3.452,3.452,0,0,1-3.442-3.442V24.945H68.541v19.5a1.147,1.147,0,0,0,2.295,0V14.62A5.736,5.736,0,0,0,65.1,8.884ZM52.48,6.589a2.295,2.295,0,0,1,4.589,0v6.884a2.295,2.295,0,0,1-4.589,0Zm-18.356,0a2.295,2.295,0,0,1,4.589,0v6.884a2.295,2.295,0,0,1-4.589,0Zm-18.356,0a2.295,2.295,0,1,1,4.589,0v6.884a2.295,2.295,0,1,1-4.589,0ZM68.541,22.651H4.295V14.62a3.452,3.452,0,0,1,3.442-3.442h5.736v2.295a4.589,4.589,0,1,0,9.178,0V11.178h9.178v2.295a4.589,4.589,0,1,0,9.178,0V11.178h9.178v2.295a4.589,4.589,0,1,0,9.178,0V11.178H65.1a3.452,3.452,0,0,1,3.442,3.442Z" transform="translate(0)"/>
    <path id="Path_1095" data-name="Path 1095" d="M31.178,29.295A2.3,2.3,0,0,0,28.884,27H24.295A2.3,2.3,0,0,0,22,29.295v3.442a2.3,2.3,0,0,0,2.295,2.295h4.589a2.3,2.3,0,0,0,2.295-2.295Zm-6.884,3.442V29.295h4.589v3.442Z" transform="translate(2.945 3.682)"/>
    <path id="Path_1096" data-name="Path 1096" d="M19.178,29.295A2.3,2.3,0,0,0,16.884,27H12.295A2.3,2.3,0,0,0,10,29.295v3.442a2.3,2.3,0,0,0,2.295,2.295h4.589a2.3,2.3,0,0,0,2.295-2.295Zm-6.884,3.442V29.295h4.589v3.442Z" transform="translate(1.178 3.682)"/>
    <path id="Path_1097" data-name="Path 1097" d="M52.884,35.031a2.3,2.3,0,0,0,2.295-2.295V29.295A2.3,2.3,0,0,0,52.884,27H48.295A2.3,2.3,0,0,0,46,29.295v3.442a2.3,2.3,0,0,0,2.295,2.295Zm-4.589-5.736h4.589v3.442H48.295Z" transform="translate(6.48 3.682)"/>
    <path id="Path_1098" data-name="Path 1098" d="M31.178,38.295A2.3,2.3,0,0,0,28.884,36H24.295A2.3,2.3,0,0,0,22,38.295v3.442a2.3,2.3,0,0,0,2.295,2.295h4.589a2.3,2.3,0,0,0,2.295-2.295Zm-6.884,3.442V38.295h4.589v3.442Z" transform="translate(2.945 5.007)"/>
    <path id="Path_1099" data-name="Path 1099" d="M19.178,38.295A2.3,2.3,0,0,0,16.884,36H12.295A2.3,2.3,0,0,0,10,38.295v3.442a2.3,2.3,0,0,0,2.295,2.295h4.589a2.3,2.3,0,0,0,2.295-2.295Zm-6.884,3.442V38.295h4.589v3.442Z" transform="translate(1.178 5.007)"/>
    <path id="Path_1100" data-name="Path 1100" d="M28.884,45H24.295A2.3,2.3,0,0,0,22,47.295v3.442a2.3,2.3,0,0,0,2.295,2.295h4.589a2.3,2.3,0,0,0,2.295-2.295V47.295A2.3,2.3,0,0,0,28.884,45Zm-4.589,5.736V47.295h4.589v3.442Z" transform="translate(2.945 6.332)"/>
    <path id="Path_1101" data-name="Path 1101" d="M36.295,35.031h4.589a2.3,2.3,0,0,0,2.295-2.295V29.295A2.3,2.3,0,0,0,40.884,27H36.295A2.3,2.3,0,0,0,34,29.295v3.442A2.3,2.3,0,0,0,36.295,35.031Zm0-5.736h4.589v3.442H36.295Z" transform="translate(4.712 3.682)"/>
    <path id="Path_1102" data-name="Path 1102" d="M34,41.736a2.3,2.3,0,0,0,2.295,2.295,1.147,1.147,0,0,0,0-2.295V38.295h4.589a1.147,1.147,0,1,0,0-2.295H36.295A2.3,2.3,0,0,0,34,38.295Z" transform="translate(4.712 5.007)"/>
    <path id="Path_1103" data-name="Path 1103" d="M16.884,45H12.295A2.3,2.3,0,0,0,10,47.295v3.442a2.3,2.3,0,0,0,2.295,2.295h4.589a2.3,2.3,0,0,0,2.295-2.295V47.295A2.3,2.3,0,0,0,16.884,45Zm-4.589,5.736V47.295h4.589v3.442Z" transform="translate(1.178 6.332)"/>
    <path id="Path_1104" data-name="Path 1104" d="M50.914,36A14.914,14.914,0,1,0,65.829,50.914,14.914,14.914,0,0,0,50.914,36Zm0,27.534a12.62,12.62,0,1,1,12.62-12.62A12.62,12.62,0,0,1,50.914,63.534Z" transform="translate(5.007 5.007)"/>
    <path id="Path_1105" data-name="Path 1105" d="M56.7,44.851l-8.923,8.923-4.056-4.057a1.147,1.147,0,1,0-1.622,1.622l4.867,4.868a1.147,1.147,0,0,0,1.622,0l9.735-9.735A1.147,1.147,0,1,0,56.7,44.851Z" transform="translate(5.855 6.261)"/>
  </g>
</svg>
