<svg xmlns="http://www.w3.org/2000/svg" width="154.811" height="136.818" viewBox="0 0 154.811 136.818">
  <g id="everyone" transform="translate(-792.095 -933.111)">
    <path id="Path_99" data-name="Path 99" d="M78.787,113.368c35.993,0,51.554-26.95,51.554,9.043s-30.863,65.451-66.855,65.451S0,158.4,0,122.411,42.794,113.368,78.787,113.368Z" transform="matrix(0.875, -0.485, 0.485, 0.875, 741.83, 905.622)" fill="#fdf1d0" opacity="0.587"/>
    <g id="Group_2403" data-name="Group 2403">
      <g id="Group_125" data-name="Group 125" transform="translate(840.357 959.806)">
        <g id="Group_124" data-name="Group 124" transform="translate(0 0)">
          <path id="Path_94" data-name="Path 94" d="M196.052,139.97l-11.284-5.015a2.211,2.211,0,0,1-1.312-2.019v-3.1a16.444,16.444,0,0,0,6.227-12.883v-4.362a4.024,4.024,0,0,0,2.075-3.517v-.423a16.488,16.488,0,0,0-16.47-16.47h-4.151a16.488,16.488,0,0,0-16.47,16.47v3.841a4.072,4.072,0,0,0,1.55,3.263,3.787,3.787,0,0,0,.526.34v.857a16.443,16.443,0,0,0,6.226,12.882v3.1a2.211,2.211,0,0,1-1.312,2.019l-11.284,5.015a10.252,10.252,0,0,0-6.083,9.36v25.736a1.942,1.942,0,1,0,3.884,0V149.33a6.35,6.35,0,0,1,.039-.668l5.2,5.2a4.257,4.257,0,0,1,1.255,3.03v18.175a1.942,1.942,0,0,0,3.884,0V156.891a8.114,8.114,0,0,0-2.392-5.776l-6.2-6.2a6.343,6.343,0,0,1,1.991-1.4l11.093-4.93,8.227,8.227v28.251a1.942,1.942,0,0,0,3.884,0V146.815l8.227-8.227,11.093,4.93a6.34,6.34,0,0,1,1.991,1.4l-6.2,6.2a8.114,8.114,0,0,0-2.392,5.776v18.175a1.942,1.942,0,0,0,3.884,0V156.891a4.257,4.257,0,0,1,1.255-3.03l5.2-5.2a6.344,6.344,0,0,1,.039.667v25.736a1.942,1.942,0,1,0,3.884,0V149.33A10.254,10.254,0,0,0,196.052,139.97Zm-22.839,3.295L166,136.046a6.082,6.082,0,0,0,.859-3.11v-.79a16.456,16.456,0,0,0,12.719,0v.79a6.081,6.081,0,0,0,.859,3.11Zm0-13.724a12.6,12.6,0,0,1-12.586-12.586v-.873a11.48,11.48,0,0,0,3.527-2.289,1.942,1.942,0,0,0-2.634-2.854,6.974,6.974,0,0,1-2.883,1.722.312.312,0,0,1-.052.01.394.394,0,0,1-.033-.176v-3.841a12.6,12.6,0,0,1,12.586-12.586h4.151a12.6,12.6,0,0,1,12.586,12.586v.423a.125.125,0,0,1-.088.127c-11.628,2.3-17.46-2.032-19.427-4a1.942,1.942,0,1,0-2.746,2.746c6.03,6.03,14.829,6.139,20.185,5.495v3.509A12.6,12.6,0,0,1,173.214,129.541Z" transform="translate(-144.292 -92.184)"/>
        </g>
      </g>
      <g id="Group_127" data-name="Group 127" transform="translate(803 970.183)">
        <g id="Group_126" data-name="Group 126" transform="translate(0 0)">
          <path id="Path_95" data-name="Path 95" d="M35.015,159.112v-4.152a14.391,14.391,0,0,0-6.6-12.091,8.168,8.168,0,1,0-15.591,0,14.391,14.391,0,0,0-6.6,12.091v4.151a14.386,14.386,0,0,0,6.226,11.843v4.27a2.2,2.2,0,0,1-1.221,1.976l-6.716,3.358A8.124,8.124,0,0,0,0,187.864v16.906a1.942,1.942,0,0,0,3.884,0V188.7l3.163,3.163A4.257,4.257,0,0,1,8.3,194.9v9.873a1.942,1.942,0,0,0,3.884,0V194.9a8.115,8.115,0,0,0-2.392-5.776l-4.4-4.4c-.021-.021-.044-.04-.066-.06a4.33,4.33,0,0,1,.927-.627l6.716-3.358a6.187,6.187,0,0,0,.963-.6l4.748,4.748v19.95a1.942,1.942,0,0,0,3.884,0v-19.95l4.748-4.748a6.158,6.158,0,0,0,.963.6l1.852.926a1.942,1.942,0,1,0,1.737-3.473L30.01,177.2a2.2,2.2,0,0,1-1.221-1.976v-4.27A14.387,14.387,0,0,0,35.015,159.112ZM20.62,136.149a4.289,4.289,0,0,1,4.284,4.284,4.352,4.352,0,0,1-.068.765,14.393,14.393,0,0,0-8.427,0,4.258,4.258,0,0,1,4.211-5.048Zm0,8.3a10.523,10.523,0,0,1,10.511,10.511v.7a12.19,12.19,0,0,1-13.108-3.944,1.942,1.942,0,0,0-2.926-.208,12.7,12.7,0,0,1-4.98,3.179A10.521,10.521,0,0,1,20.62,144.45Zm0,36.82-4.487-4.487a6.149,6.149,0,0,0,.2-1.558v-2.37a14.42,14.42,0,0,0,8.569,0v2.37a6.147,6.147,0,0,0,.2,1.558Zm0-11.648A10.523,10.523,0,0,1,10.11,159.111v-.4a15.569,15.569,0,0,0,6.24-3.109,17.52,17.52,0,0,0,3.6,2.621,15.445,15.445,0,0,0,7.421,1.915,16.269,16.269,0,0,0,3.743-.448A10.524,10.524,0,0,1,20.62,169.622Z" transform="translate(0 -132.265)"/>
        </g>
      </g>
      <g id="Group_129" data-name="Group 129" transform="translate(896.393 974.334)">
        <g id="Group_128" data-name="Group 128">
          <path id="Path_96" data-name="Path 96" d="M395.376,188.29l-10.867-5.434a2.2,2.2,0,0,1-1.221-1.976v-2.752a12.29,12.29,0,0,0,4.151-9.21v-2.21h.134a1.942,1.942,0,0,0,1.942-1.942v-4.151A12.333,12.333,0,0,0,377.2,148.3h-4.151a12.333,12.333,0,0,0-12.319,12.319v4.151a1.942,1.942,0,0,0,1.942,1.942c.016,0,.063,0,.134,0v2.212a12.29,12.29,0,0,0,4.151,9.211v2.752a2.2,2.2,0,0,1-1.221,1.976,1.942,1.942,0,1,0,1.737,3.474,6.183,6.183,0,0,0,.963-.6l4.748,4.748v26.176a1.942,1.942,0,1,0,3.884,0V190.476l4.748-4.748a6.158,6.158,0,0,0,.963.6l10.515,5.258-3.189,3.189a8.115,8.115,0,0,0-2.392,5.776v16.1a1.942,1.942,0,0,0,3.884,0v-16.1a4.257,4.257,0,0,1,1.255-3.03l3.021-3.021a4.328,4.328,0,0,1,.142,1.094v21.057a1.942,1.942,0,0,0,3.884,0V195.6A8.123,8.123,0,0,0,395.376,188.29Zm-30.767-25.864v-1.81h0a8.445,8.445,0,0,1,8.435-8.435H377.2a8.445,8.445,0,0,1,8.435,8.435v2.157A29.7,29.7,0,0,1,372.047,159a1.942,1.942,0,0,0-2.45.243A12.718,12.718,0,0,1,364.609,162.426Zm10.511,24.5-4.487-4.487a6.148,6.148,0,0,0,.2-1.558v-.413a12.308,12.308,0,0,0,8.569,0v.413a6.138,6.138,0,0,0,.2,1.558Zm0-9.572a8.445,8.445,0,0,1-8.435-8.435v-3.13h0a16.432,16.432,0,0,0,4.557-2.781,34.5,34.5,0,0,0,12.314,3.5v2.411A8.445,8.445,0,0,1,375.12,177.354Z" transform="translate(-360.726 -148.298)"/>
        </g>
      </g>
    </g>
  </g>
</svg>
