<svg xmlns="http://www.w3.org/2000/svg" width="154.811" height="136.818" viewBox="0 0 154.811 136.818">
  <g id="experts" transform="translate(-1106.5 -972.182)">
    <path id="Path_104" data-name="Path 104" d="M78.787,113.368c35.993,0,51.554-26.95,51.554,9.043s-30.863,65.451-66.855,65.451S0,158.4,0,122.411,42.794,113.368,78.787,113.368Z" transform="matrix(0.875, -0.485, 0.485, 0.875, 1056.235, 944.693)" fill="#fdf1d0" opacity="0.587"/>
    <g id="customer-service" transform="translate(1144.912 995.352)">
      <path id="Path_36" data-name="Path 36" d="M81.323,38.079a38.792,38.792,0,0,0-5.3-18.781c2.711-12.971-11-23.518-22.815-17.62A38.261,38.261,0,0,0,18.92,8.029,1.243,1.243,0,0,0,20.432,10,36.318,36.318,0,0,1,50.47,3.395,16.2,16.2,0,0,0,47.83,5.978c-19.322-3.3-37.715,11.641-38.6,31.054a9.862,9.862,0,0,0-3.053.29,35.679,35.679,0,0,1,8.735-22.1,1.243,1.243,0,0,0-1.853-1.654,38.278,38.278,0,0,0-9.4,24.925A8.262,8.262,0,0,0,.088,45.3v12c0,5.3,4.517,8.388,9.411,8.265a4.7,4.7,0,0,0,9.156-1.452V38.058a4.715,4.715,0,0,0-6.562-4.3A30.954,30.954,0,0,1,46.276,8.266a16.153,16.153,0,0,0,2.752,19.247v3.373a1.242,1.242,0,0,0,1.726,1.144l3.023-1.277a16.16,16.16,0,0,0,17.489-2.963,30.476,30.476,0,0,1,1.639,5.976,4.715,4.715,0,0,0-6.59,4.292V64.111a4.709,4.709,0,0,0,6.962,4.107c-.006,1.1-.026,2.195-.069,3.281a7.943,7.943,0,0,1-6.539,7.124,35.13,35.13,0,0,1-3.931.13,4.817,4.817,0,0,0-4.64-3.546H51.5a4.808,4.808,0,0,0,0,9.617h6.6a4.817,4.817,0,0,0,4.651-3.587,25.225,25.225,0,0,0,4.277-.155,10.515,10.515,0,0,0,8.725-9.408c0-.017,0-.033,0-.049.086-2.161.021-4.344,0-6.487a8.452,8.452,0,0,0,9.13-8.265v-12a8.262,8.262,0,0,0-3.559-6.791ZM2.572,57.3v-12c0-3.621,3.187-5.977,6.609-5.78V63.08C5.757,63.269,2.572,60.931,2.572,57.3Zm11.39-21.45a2.211,2.211,0,0,1,2.209,2.209V64.112a2.209,2.209,0,0,1-4.417,0V38.058a2.211,2.211,0,0,1,2.209-2.209ZM58.1,82.339H51.5a2.324,2.324,0,0,1,0-4.648h6.6A2.324,2.324,0,0,1,58.1,82.339ZM78.793,36.9a9.862,9.862,0,0,0-3.057-.29,33.01,33.01,0,0,0-2.625-10.867,16.065,16.065,0,0,0,1.867-3.167A36.32,36.32,0,0,1,78.793,36.9ZM60.3,29.648a13.441,13.441,0,0,1-5.948-1.37,1.242,1.242,0,0,0-1.029-.028l-1.806.763V26.981a1.242,1.242,0,0,0-.4-.914c-9.044-8.3-3.1-23.56,9.185-23.554C78.3,3.258,78.294,28.905,60.3,29.648ZM82.4,56.873c0,3.66-3.232,5.989-6.675,5.78q-.023-2-.022-4a1.243,1.243,0,0,0-2.484,0v5.463a2.209,2.209,0,1,1-4.417,0V38.058a2.209,2.209,0,0,1,4.417,0V52.036a1.243,1.243,0,0,0,2.484,0V39.09c3.452-.2,6.7,2.089,6.7,5.78Z" transform="translate(0 0)"/>
      <path id="Path_37" data-name="Path 37" d="M173.412,235.116a1.242,1.242,0,0,0,1.726-1.144v-4.056c11.9-11.57,3.6-32.016-13.026-31.994a18.671,18.671,0,0,0-18.651,18.648c-.158,13.341,14.228,22.63,26.311,17.008ZM169.2,231.1c-10.5,5.289-23.4-2.759-23.254-14.532a16.184,16.184,0,0,1,16.167-16.164c14.642-.007,21.718,18.175,10.943,28.062a1.242,1.242,0,0,0-.4.914V232.1l-2.426-1.025A1.242,1.242,0,0,0,169.2,231.1Z" transform="translate(-119.627 -165.143)"/>
      <path id="Path_38" data-name="Path 38" d="M229.959,263.44H236.6a1.243,1.243,0,0,0,0-2.484h-6.645a1.243,1.243,0,0,0,0,2.484Z" transform="translate(-190.796 -217.738)"/>
      <path id="Path_39" data-name="Path 39" d="M236.6,345.09H229.96a1.243,1.243,0,0,0,0,2.484H236.6A1.243,1.243,0,0,0,236.6,345.09Z" transform="translate(-190.797 -287.938)"/>
      <path id="Path_40" data-name="Path 40" d="M222.249,303.023H208.495a1.243,1.243,0,0,0,0,2.484h13.754A1.243,1.243,0,0,0,222.249,303.023Z" transform="translate(-172.887 -252.838)"/>
      <path id="Path_41" data-name="Path 41" d="M337.011,39.856a5.357,5.357,0,0,0-5.414,5.3,1.243,1.243,0,0,0,2.484,0,2.885,2.885,0,0,1,2.88-2.821,2.821,2.821,0,0,1-.059,5.642,1.242,1.242,0,0,0-1.242,1.242v4.249a1.242,1.242,0,1,0,2.484,0V50.317a5.3,5.3,0,0,0-1.133-10.461Z" transform="translate(-276.606 -33.255)"/>
      <path id="Path_42" data-name="Path 42" d="M357.588,140.331a1.243,1.243,0,0,0,0,2.484A1.243,1.243,0,0,0,357.588,140.331Z" transform="translate(-297.292 -117.09)"/>
    </g>
  </g>
</svg>
