<svg xmlns="http://www.w3.org/2000/svg" width="154.811" height="136.818" viewBox="0 0 154.811 136.818">
  <g id="flexibility" transform="translate(-149.806 -926.401)">
    <path id="Path_97" data-name="Path 97" d="M78.787,113.368c35.993,0,51.554-26.95,51.554,9.043s-30.863,65.451-66.855,65.451S0,158.4,0,122.411,42.794,113.368,78.787,113.368Z" transform="matrix(0.875, -0.485, 0.485, 0.875, 99.541, 898.912)" fill="#fdf1d0" opacity="0.587"/>
    <g id="yoga" transform="translate(136.675 948.999)">
      <g id="Group_121" data-name="Group 121" transform="translate(62.22 0.001)">
        <g id="Group_120" data-name="Group 120" transform="translate(0 0)">
          <path id="Path_84" data-name="Path 84" d="M134.124,25.854l-8.44-8.44a3.2,3.2,0,0,0-2.278-.943,3.234,3.234,0,0,0-.807.105l-.011-.02a4.169,4.169,0,0,0-5.751-1.267,29.349,29.349,0,0,1-13.15,4.036,1.406,1.406,0,1,0,.261,2.8,32.1,32.1,0,0,0,14.4-4.466,1.351,1.351,0,1,1,1.455,2.278,31.123,31.123,0,0,1-9.825,3.975,54.064,54.064,0,0,1-16.548.9l-2.1-2.964c1.532.2,3.613.4,6.018.473h.042a1.406,1.406,0,0,0,.041-2.812,53.608,53.608,0,0,1-8.287-.852,4.233,4.233,0,0,0-.433-.065A3.326,3.326,0,0,0,85,18.7l-2.653,1.907A9.487,9.487,0,0,0,82.2,19.1a3.039,3.039,0,0,0,1.267-3.2,11.631,11.631,0,0,0-2.763-5.38A6.169,6.169,0,1,0,70.37,7.655c-3.948.59-7.194,3.947-8.092,8.536a3.043,3.043,0,0,0,1.354,3.162,9.4,9.4,0,0,0,9.3,10.814h.13a9.4,9.4,0,0,0,2.227-.3,7.225,7.225,0,0,0,.774,2.826,57.212,57.212,0,0,0,.233,18.02,33.915,33.915,0,0,0,3.944,10.864A4.137,4.137,0,0,0,82.786,63.5a4.193,4.193,0,0,0,1.054.136,4.162,4.162,0,0,0,3.919-2.788V86.752h-.977A6.385,6.385,0,0,0,80.4,93.13v.259A2.616,2.616,0,0,0,83.017,96H94.954a3.225,3.225,0,0,0,3.221-3.221V89.365a2.608,2.608,0,0,0-.954-2.017V77.488a1.406,1.406,0,0,0-2.812,0v9.264H90.572V50.584a3.236,3.236,0,0,0,.979-.223L94.5,55.4a5.183,5.183,0,0,0-.091.977v14.7a1.406,1.406,0,1,0,2.812,0v-14.7c0-.144.017-.828.331-.989l14.883-.682a13.141,13.141,0,0,0,5.081-1.147,1.406,1.406,0,0,0-1.15-2.567,10.329,10.329,0,0,1-4.01.9h-.034l-15.078.691a1.41,1.41,0,0,0-.25.034,3.2,3.2,0,0,0-.711.257L93.9,48.8l7.846-5.641a3.34,3.34,0,0,1,1.345,1.786,6.23,6.23,0,0,0,5.907,4.32h.134l3.17-.069a7.618,7.618,0,0,0,7.475-7.143l1.1-16.364,2.538,2.538-.944,14.008a10.357,10.357,0,0,1-1.764,5.119,1.406,1.406,0,1,0,2.326,1.58,13.17,13.17,0,0,0,2.244-6.51l.794-11.78a6.385,6.385,0,0,0,7.873-.908l.183-.183A2.616,2.616,0,0,0,134.124,25.854ZM76.3,2.815h.046A3.35,3.35,0,0,1,78.5,8.735a8.91,8.91,0,0,0-1.483-.7l.6-1.265A1.406,1.406,0,0,0,75.078,5.56l-.939,1.967h-.124l-.726.01A3.351,3.351,0,0,1,76.3,2.815Zm-11.034,14.2a.2.2,0,0,1-.178-.082.238.238,0,0,1-.051-.2c.724-3.7,3.4-6.315,6.5-6.357l2.515-.034h.076c3.072,0,5.777,2.529,6.595,6.178a.238.238,0,0,1-.046.206.218.218,0,0,1-.176.087L69.8,16.956V15.174a1.406,1.406,0,0,0-2.812,0v1.82Zm7.759,10.336h-.091a6.589,6.589,0,0,1-6.53-7.539l13.036-.177a6.591,6.591,0,0,1-6.415,7.716Zm11.49,33.278a1.351,1.351,0,0,1-1.85-.481,31.122,31.122,0,0,1-3.606-9.966A51.793,51.793,0,0,1,78.5,36.257l2.523,3.565c0,.018,0,.035,0,.053C80.8,47.558,82.141,53.919,85,58.781A1.353,1.353,0,0,1,84.517,60.631Zm2.905-3.275A29.817,29.817,0,0,1,83.87,43.849l3.792,5.357c.031.043.065.083.1.124v8.751A4.192,4.192,0,0,0,87.423,57.356Zm7.939,32.208V92.78a.409.409,0,0,1-.408.408H83.217V93.13a3.569,3.569,0,0,1,3.565-3.565Zm5.072-48.934-9.228,6.635,0,0-.589.423a.469.469,0,0,1-.656-.11l-6.829-9.649a10.6,10.6,0,0,0,2.728-1.855,1.406,1.406,0,0,0-1.924-2.051,7.845,7.845,0,0,1-2.461,1.564l-2.553-3.607a4.421,4.421,0,0,1-.751-3.411A9.476,9.476,0,0,0,81.483,24.7l5.161-3.71a.509.509,0,0,1,.706.109l13.232,18.649A.638.638,0,0,1,100.434,40.631Zm16.531,1.228a4.821,4.821,0,0,1-4.73,4.52l-3.171.069a3.409,3.409,0,0,1-3.3-2.358,6.213,6.213,0,0,0-2.35-3.2,3.441,3.441,0,0,0-.54-2.775L95.542,27.783c1.089.059,2.257.1,3.486.1a52.173,52.173,0,0,0,11.582-1.227,36.269,36.269,0,0,0,7.554-2.6Zm14.987-14.116a3.569,3.569,0,0,1-5.042,0l-5.5-5.5a4.134,4.134,0,0,0,1.735-2.549c.026-.119.045-.238.061-.358a.408.408,0,0,1,.2-.053.4.4,0,0,1,.289.12l8.3,8.3Z" transform="translate(-62.22 -0.001)"/>
        </g>
      </g>
      <g id="Group_123" data-name="Group 123" transform="translate(68.839 20.212)">
        <g id="Group_122" data-name="Group 122" transform="translate(0)">
          <path id="Path_85" data-name="Path 85" d="M98.942,107.789h-.025a1.4,1.4,0,0,0-1.4,1.4,1.413,1.413,0,0,0,1.407,1.414h.008a1.406,1.406,0,0,0,.007-2.812Z" transform="translate(-97.52 -107.789)"/>
        </g>
      </g>
    </g>
  </g>
</svg>
