<svg xmlns="http://www.w3.org/2000/svg" width="143" height="143" viewBox="0 0 143 143">
  <g id="golive" transform="translate(-824 -2947)">
    <circle id="Ellipse_119" data-name="Ellipse 119" cx="71.5" cy="71.5" r="71.5" transform="translate(824 2947)" fill="#e6e6e6" opacity="0.46"/>
    <circle id="Ellipse_120" data-name="Ellipse 120" cx="58.5" cy="58.5" r="58.5" transform="translate(836 2960)" fill="#ea691e"/>
    <g id="Outline" transform="translate(858 2983)">
      <g id="Group_2340" data-name="Group 2340" transform="translate(2 1)">
        <path id="Path_1255" data-name="Path 1255" d="M69.7,62.492V61.344A3.443,3.443,0,0,0,66.262,57.9v-2.3a1.147,1.147,0,0,0-.336-.811L64.571,53.44a3.435,3.435,0,0,0-.662-3.907l-2.268-2.268a5.73,5.73,0,0,0-5.707-5.429H53.954a9.153,9.153,0,0,0,3.128-6.885H58.23a3.443,3.443,0,0,0,3.443-3.443V24.623A12.638,12.638,0,0,0,49.049,12h-2.3a12.492,12.492,0,0,0-9.694,4.59H34.131a1.148,1.148,0,0,0-1.148,1.148V21.18a6.892,6.892,0,0,0,5.738,6.782v6.989a9.153,9.153,0,0,0,3.128,6.885H39.869a1.148,1.148,0,0,0,0,2.3h3.443a4.59,4.59,0,0,0,9.18,0h3.443A3.417,3.417,0,0,1,58.5,45.307,3.43,3.43,0,0,0,55.8,51.16l1.621,1.623h0l1.621,1.623a3.4,3.4,0,0,0,3.91.663l1.017,1.017V57.9H61.672a3.443,3.443,0,0,0-3.443,3.443v1.148h-2.3V55.607a1.148,1.148,0,1,0-2.3,0v6.885H42.164v-9.18a1.148,1.148,0,0,0-2.3,0v9.18H36.426V59.049a1.148,1.148,0,0,0-2.3,0v3.443h-2.3V61.344A3.443,3.443,0,0,0,28.393,57.9H24.951v-2.3h8.033a3.443,3.443,0,0,0,3.443-3.443V33.8a3.443,3.443,0,0,0-3.443-3.443H23.433L22.1,27.018a4.59,4.59,0,1,0-5.765,0L14.7,31.081a1.161,1.161,0,0,0-.081.427v2.3a3.443,3.443,0,0,0,3.443,3.443h2.3A3.443,3.443,0,0,0,23.8,33.8V32.656h9.18A1.148,1.148,0,0,1,34.131,33.8V52.164a1.148,1.148,0,0,1-1.148,1.148H24.951V47.574a5.738,5.738,0,0,0-11.475,0v5.738H5.443A1.148,1.148,0,0,1,4.3,52.164V33.8a1.148,1.148,0,0,1,1.148-1.148H11.18a1.148,1.148,0,0,0,0-2.3H5.443A3.443,3.443,0,0,0,2,33.8V52.164a3.443,3.443,0,0,0,3.443,3.443h8.033v2.3H10.033a1.148,1.148,0,1,0,0,2.3H28.393a1.148,1.148,0,0,1,1.148,1.148v1.148H3.148A1.148,1.148,0,0,0,2,63.639v4.59a1.148,1.148,0,0,0,2.3,0V64.787H68.557V68.23a1.148,1.148,0,0,0,2.3,0v-4.59A1.148,1.148,0,0,0,69.7,62.492ZM59.377,31.508a1.148,1.148,0,0,1-1.148,1.148H57.082v-4.59H58.23a1.148,1.148,0,0,1,1.148,1.148ZM46.754,14.3h2.3A10.339,10.339,0,0,1,59.377,24.623v1.359a3.4,3.4,0,0,0-1.148-.211H57.082v-2.3A6.892,6.892,0,0,0,50.2,16.59H40.282A10.213,10.213,0,0,1,46.754,14.3ZM35.279,21.18v-2.3H50.2a4.59,4.59,0,0,1,4.59,4.59v2.3H39.869A4.59,4.59,0,0,1,35.279,21.18Zm5.738,13.77V28.066h13.77v6.885a6.885,6.885,0,1,1-13.77,0ZM47.9,46.426a2.3,2.3,0,0,1-2.3-2.3v-.3a8.877,8.877,0,0,0,4.59,0v.3A2.3,2.3,0,0,1,47.9,46.426Zm9.517,1.484a1.148,1.148,0,0,1,1.623,0l.811.811L58.23,50.344l-.811-.811A1.148,1.148,0,0,1,57.418,47.91Zm3.245,4.869-.811-.812,1.623-1.623.811.811a1.148,1.148,0,0,1,0,1.624h0a1.174,1.174,0,0,1-1.623,0Zm-41.45-31.6a2.287,2.287,0,0,1,1.976,1.148h-.829a1.148,1.148,0,0,0,0,2.3h.829a2.3,2.3,0,1,1-1.976-3.443Zm2.3,12.623a1.148,1.148,0,0,1-1.148,1.148h-2.3A1.148,1.148,0,0,1,16.918,33.8V31.729l1.492-3.743a4,4,0,0,0,1.6,0l1.5,3.743ZM15.77,57.9V47.574a3.443,3.443,0,1,1,6.885,0V57.9Zm44.754,4.59V61.344A1.148,1.148,0,0,1,61.672,60.2h4.59a1.148,1.148,0,0,1,1.148,1.148v1.148Z" transform="translate(-2 0.623)" fill="#fff"/>
        <circle id="Ellipse_121" data-name="Ellipse 121" cx="1" cy="1" r="1" transform="translate(40 31)" fill="#fff"/>
        <circle id="Ellipse_122" data-name="Ellipse 122" cx="1" cy="1" r="1" transform="translate(47 31)" fill="#fff"/>
        <path id="Path_1256" data-name="Path 1256" d="M38,33.3c0,1.827,1.377,4.59,3.443,4.59s3.443-2.763,3.443-4.59a2.21,2.21,0,0,0-.609-1.635A3.337,3.337,0,0,0,41.738,31h-.59a3.311,3.311,0,0,0-2.538.661A2.21,2.21,0,0,0,38,33.3Zm3.13,0h.624c.259,0,.62,0,.835.021-.011.94-.783,2.226-1.148,2.276-.368-.049-1.14-1.336-1.148-2.276A7.833,7.833,0,0,1,41.131,33.3Z" transform="translate(3.311 3.421)" fill="#fff"/>
        <path id="Path_1257" data-name="Path 1257" d="M30.443,9A3.443,3.443,0,0,0,27,12.443a1.148,1.148,0,0,0,2.3,0A1.148,1.148,0,0,1,30.443,11.3a1.148,1.148,0,0,0,0-2.3Z" transform="translate(1.689 0.18)" fill="#fff"/>
        <path id="Path_1258" data-name="Path 1258" d="M31.033,5A8.042,8.042,0,0,0,23,13.033a1.148,1.148,0,1,0,2.3,0A5.745,5.745,0,0,1,31.033,7.3a1.148,1.148,0,0,0,0-2.3Z" transform="translate(1.098 -0.41)" fill="#fff"/>
        <path id="Path_1259" data-name="Path 1259" d="M20.148,14.77A1.148,1.148,0,0,0,21.3,13.623,10.34,10.34,0,0,1,31.623,3.3a1.148,1.148,0,0,0,0-2.3A12.638,12.638,0,0,0,19,13.623a1.148,1.148,0,0,0,1.148,1.148Z" transform="translate(0.508 -1)" fill="#fff"/>
      </g>
    </g>
  </g>
</svg>
