<svg xmlns="http://www.w3.org/2000/svg" width="154.811" height="136.818" viewBox="0 0 154.811 136.818">
  <g id="income" transform="translate(-625.595 -922.182)">
    <path id="Path_102" data-name="Path 102" d="M78.787,113.368c35.993,0,51.554-26.95,51.554,9.043s-30.863,65.451-66.855,65.451S0,158.4,0,122.411,42.794,113.368,78.787,113.368Z" transform="matrix(0.875, -0.485, 0.485, 0.875, 575.33, 894.693)" fill="#fdf1d0" opacity="0.587"/>
    <g id="Group_2676" data-name="Group 2676">
      <g id="Group_37" data-name="Group 37" transform="translate(657.135 938.782)">
        <path id="Path_43" data-name="Path 43" d="M92.131,52.6H90.787V40.5a5.684,5.684,0,0,0-2.411-4.644V34.206A4.341,4.341,0,0,0,84.04,29.87h-1l3.84-5.634a4.15,4.15,0,0,0-1.091-5.759L59.732.721a4.145,4.145,0,0,0-5.759,1.091l-22.488,33H25.227l1.51-15.283a.453.453,0,0,1,.285-.38,9.729,9.729,0,0,0,4.746-3.856.45.45,0,0,1,.425-.2l9.815.97a1.28,1.28,0,0,0,.252-2.547l-9.815-.97a3,3,0,0,0-2.836,1.373,7.152,7.152,0,0,1-3.49,2.835,2.991,2.991,0,0,0-1.929,2.524L22.655,34.811H21.024l2.388-24.172a1.586,1.586,0,0,1,1.734-1.422l19.834,1.959a1.28,1.28,0,0,0,.252-2.547L25.4,6.67a4.15,4.15,0,0,0-4.532,3.717L18.939,29.87H15.662a4.341,4.341,0,0,0-4.336,4.336V35.33A5.694,5.694,0,0,0,8.008,40.5V84.122A5.694,5.694,0,0,0,13.7,89.81H85.1a5.694,5.694,0,0,0,5.688-5.688V72.016h1.344a2.88,2.88,0,0,0,2.877-2.877V55.481A2.88,2.88,0,0,0,92.131,52.6ZM84.04,32.429h0a1.778,1.778,0,0,1,1.777,1.777v.652a5.7,5.7,0,0,0-.718-.047h-5.43l1.623-2.382ZM56.087,3.254A1.576,1.576,0,0,1,57.1,2.589a1.609,1.609,0,0,1,.3-.028,1.575,1.575,0,0,1,.889.276L84.344,20.591a1.587,1.587,0,0,1,.417,2.2L76.572,34.81H74.607l4.015-5.891a2.992,2.992,0,0,0,.14-3.173,7.152,7.152,0,0,1-.857-4.414,2.993,2.993,0,0,0-1.295-2.872L63.1,9.255A2.993,2.993,0,0,0,59.957,9.1a7.154,7.154,0,0,1-4.422.817,3.029,3.029,0,0,0-2.9,1.29l-16.085,23.6H34.582Zm.564,21.732a10.56,10.56,0,0,0-10.52,9.826H39.644l15.1-22.162h0a.457.457,0,0,1,.374-.2.436.436,0,0,1,.058,0,9.73,9.73,0,0,0,6.014-1.111.452.452,0,0,1,.469.029l13.506,9.2a.452.452,0,0,1,.2.426,9.727,9.727,0,0,0,1.166,6,.454.454,0,0,1-.025.475l-5,7.333H67.172A10.56,10.56,0,0,0,56.651,24.985Zm7.954,9.826H48.7a7.987,7.987,0,0,1,15.909,0Zm-50.72-.605a1.779,1.779,0,0,1,1.777-1.777h3.025l-.235,2.382H13.885ZM10.567,40.5A3.132,3.132,0,0,1,13.7,37.37H85.1A3.132,3.132,0,0,1,88.228,40.5v3.551H10.567Zm77.66,43.623A3.132,3.132,0,0,1,85.1,87.25H13.7a3.132,3.132,0,0,1-3.129-3.128V80.571h6.9a1.28,1.28,0,0,0,0-2.559h-6.9v-31.4h77.66v6H76.06a9.717,9.717,0,0,0-8.731,5.469l-.017.032c-.013.028-.025.056-.038.084a9.65,9.65,0,0,0-.484,1.237v0a9.708,9.708,0,0,0,9.27,12.585H88.227v6H25.662a1.28,1.28,0,0,0,0,2.559H88.228Zm4.221-14.983a.318.318,0,0,1-.318.317H76.06a7.153,7.153,0,0,1-6.283-3.743q-.083-.152-.158-.308-.151-.312-.271-.641a7.154,7.154,0,0,1,0-4.909q.121-.328.271-.641.076-.156.158-.308a7.153,7.153,0,0,1,6.283-3.743H92.131a.318.318,0,0,1,.318.317V69.139Z" transform="translate(-8.008 0)"/>
      </g>
      <g id="Group_39" data-name="Group 39" transform="translate(720.295 995.9)">
        <path id="Path_44" data-name="Path 44" d="M373.273,325.627a5.192,5.192,0,1,0,5.192,5.192A5.2,5.2,0,0,0,373.273,325.627Zm0,7.825a2.633,2.633,0,1,1,2.633-2.633A2.636,2.636,0,0,1,373.273,333.452Z" transform="translate(-368.081 -325.627)"/>
      </g>
    </g>
  </g>
</svg>
