<svg xmlns="http://www.w3.org/2000/svg" width="57.604" height="98.025" viewBox="0 0 57.604 98.025">
  <g id="fimi-logo3-dark" transform="translate(-10.7 -9.8)">
    <path id="Path_15" data-name="Path 15" d="M125.253,107.377H112.2V64.225L125.253,51Z" transform="translate(-57.919 -23.51)" fill="#ea6909"/>
    <path id="Path_16" data-name="Path 16" d="M75.553,135.623H62.5V114.154L75.553,100.5Z" transform="translate(-29.559 -51.756)" fill="#ea6909"/>
    <path id="Path_17" data-name="Path 17" d="M11.8,107.377V72.254C11.8,60.833,23.994,51,34.256,51H67.962L54.909,64.225S27.73,60.232,25.626,72.254h21L33.569,85.908l-8.716.086v21.34H11.8Z" transform="translate(-0.628 -23.51)" fill="#fff"/>
    <ellipse id="Ellipse_2" data-name="Ellipse 2" cx="7.315" cy="7.772" rx="7.315" ry="7.772" transform="translate(53.674 9.8)" fill="#ea6909"/>
    <path id="Path_18" data-name="Path 18" d="M24.853,164.9H11.8l13.053-13.1Z" transform="translate(-0.628 -81.029)" fill="#ea6909"/>
    <g id="Group_3" data-name="Group 3" transform="translate(10.7 89.663)">
      <path id="Path_19" data-name="Path 19" d="M13.791,203.1h7.042v2.92H13.791v7.729H10.7V195.8H21.348v2.92H13.791Z" transform="translate(-10.7 -195.8)" fill="#fff"/>
      <path id="Path_20" data-name="Path 20" d="M42.5,209.2h3.091v12.151H42.5Z" transform="translate(-28.846 -203.446)" fill="#fff"/>
      <path id="Path_21" data-name="Path 21" d="M55.7,204.407h2.362V200.8h3.091v3.607H64.8v2.748h-3.65v4.895c0,1.5.773,1.932,1.589,1.932a2.515,2.515,0,0,0,1.288-.429l1.116,2.49a5.665,5.665,0,0,1-2.92.773,4.071,4.071,0,0,1-4.165-4.294v-5.367H55.7Z" transform="translate(-36.378 -198.653)" fill="#fff"/>
      <path id="Path_22" data-name="Path 22" d="M86.32,195.8l5.839,9.017L98,195.8h2.834v17.948H97.741V201.725l-5.625,8.544-5.625-8.544v12.022H83.4V195.8Z" transform="translate(-52.185 -195.8)" fill="#fff"/>
      <path id="Path_23" data-name="Path 23" d="M133.2,209.2h3.091v12.151H133.2Z" transform="translate(-80.602 -203.446)" fill="#fff"/>
    </g>
    <rect id="Rectangle_4" data-name="Rectangle 4" width="3.091" height="3.091" transform="translate(24.354 89.792)" fill="#ea6909"/>
    <rect id="Rectangle_5" data-name="Rectangle 5" width="3.091" height="3.091" transform="translate(63.298 89.964)" fill="#ea6909"/>
  </g>
</svg>
