<svg xmlns="http://www.w3.org/2000/svg" width="44.656" height="75.993" viewBox="0 0 44.656 75.993">
  <g id="fimi-logo3-dark" transform="translate(-10.7 -9.8)">
    <path id="Path_15" data-name="Path 15" d="M122.319,94.705H112.2V61.252L122.319,51Z" transform="translate(-67.714 -27.486)" fill="#ea6909"/>
    <path id="Path_16" data-name="Path 16" d="M72.619,127.728H62.5V111.085L72.619,100.5Z" transform="translate(-34.558 -60.509)" fill="#ea6909"/>
    <path id="Path_17" data-name="Path 17" d="M11.8,94.705V67.477C11.8,58.623,21.253,51,29.209,51h26.13L45.22,61.252s-21.07-3.1-22.7,6.225H38.8L28.676,78.062l-6.757.067V94.672H11.8Z" transform="translate(-0.734 -27.486)" fill="#1d1d1b"/>
    <ellipse id="Ellipse_2" data-name="Ellipse 2" cx="5.671" cy="6.025" rx="5.671" ry="6.025" transform="translate(44.015 9.8)" fill="#ea6909"/>
    <path id="Path_18" data-name="Path 18" d="M21.919,161.952H11.8L21.919,151.8Z" transform="translate(-0.734 -94.733)" fill="#ea6909"/>
    <g id="Group_3" data-name="Group 3" transform="translate(10.7 71.713)">
      <path id="Path_19" data-name="Path 19" d="M13.1,201.459h5.459v2.263H13.1v5.992H10.7V195.8h8.255v2.263H13.1Z" transform="translate(-10.7 -195.8)" fill="#1d1d1b"/>
      <path id="Path_20" data-name="Path 20" d="M42.5,209.2h2.4v9.42H42.5Z" transform="translate(-31.915 -204.74)" fill="#1d1d1b"/>
      <path id="Path_21" data-name="Path 21" d="M55.7,203.6h1.831v-2.8h2.4v2.8h2.829v2.13H59.927v3.795c0,1.165.6,1.5,1.232,1.5a1.95,1.95,0,0,0,1-.333l.865,1.931a4.392,4.392,0,0,1-2.263.6,3.156,3.156,0,0,1-3.229-3.329v-4.161H55.7S55.7,203.6,55.7,203.6Z" transform="translate(-40.721 -199.136)" fill="#1d1d1b"/>
      <path id="Path_22" data-name="Path 22" d="M85.663,195.8l4.527,6.99,4.527-6.99h2.2v13.914h-2.4v-9.32l-4.361,6.624L85.8,200.394v9.32H83.4V195.8Z" transform="translate(-59.201 -195.8)" fill="#1d1d1b"/>
      <path id="Path_23" data-name="Path 23" d="M133.2,209.2h2.4v9.42h-2.4Z" transform="translate(-92.424 -204.74)" fill="#1d1d1b"/>
    </g>
    <rect id="Rectangle_4" data-name="Rectangle 4" width="2.397" height="2.397" transform="translate(21.285 71.813)" fill="#ea6909"/>
    <rect id="Rectangle_5" data-name="Rectangle 5" width="2.397" height="2.397" transform="translate(51.476 71.946)" fill="#ea6909"/>
  </g>
</svg>
