<svg xmlns="http://www.w3.org/2000/svg" width="154.811" height="136.818" viewBox="0 0 154.811 136.818">
  <g id="member" transform="translate(-255.095 -922.182)">
    <path id="Path_101" data-name="Path 101" d="M78.787,113.368c35.993,0,51.554-26.95,51.554,9.043s-30.863,65.451-66.855,65.451S0,158.4,0,122.411,42.794,113.368,78.787,113.368Z" transform="matrix(0.875, -0.485, 0.485, 0.875, 204.83, 894.693)" fill="#fdf1d0" opacity="0.587"/>
    <g id="Group_2677" data-name="Group 2677">
      <path id="Path_1070" data-name="Path 1070" d="M121.067,74.7a2.042,2.042,0,1,0-3.856,1.346A18.367,18.367,0,1,1,105.9,64.743a2.043,2.043,0,0,0,1.346-3.858,22.425,22.425,0,0,0-7.4-1.248h0A22.325,22.325,0,0,0,88.356,62.8l-8.862-2.5-.368-4.05a19.388,19.388,0,0,0,9.888-14c5.992-3.261,9.405-7.931,9.405-12.938,0-4.773-2.993-9.145-8.454-12.4a20.446,20.446,0,0,0-40.28,0c-5.46,3.251-8.453,7.623-8.453,12.4,0,5.007,3.413,9.677,9.4,12.937a19.382,19.382,0,0,0,9.889,14l-.368,4.05L46.215,64.23A22.466,22.466,0,0,0,30,85.809v16.718a2.042,2.042,0,0,0,2.042,2.042h75.567a2.042,2.042,0,0,0,2.042-2.042v-.206A22.49,22.49,0,0,0,121.067,74.7Zm-26.732-45.4c0,2.832-1.768,5.606-4.952,7.9l.806-15.18C92.858,24.2,94.334,26.75,94.334,29.308ZM57.919,9.214A16.335,16.335,0,0,1,86.136,21.3l-.113,2.119a36.655,36.655,0,0,1-12.391-6.774,2.043,2.043,0,0,0-2.7-.01,38.978,38.978,0,0,1-17.212,8.525l-.205-3.87a16.078,16.078,0,0,1,4.4-12.08Zm-12.6,20.094c0-2.558,1.477-5.106,4.146-7.279l.806,15.18c-3.184-2.295-4.952-5.069-4.952-7.9Zm9.2,10.846L53.94,29.295A43.549,43.549,0,0,0,72.3,20.822,39.232,39.232,0,0,0,85.8,27.6l-.666,12.547a15.34,15.34,0,0,1-30.62.01ZM69.826,58.616a19.435,19.435,0,0,0,5.345-.747l.3,3.255-5.641,5.715-5.641-5.715.3-3.255A19.443,19.443,0,0,0,69.826,58.616ZM34.085,85.809A18.466,18.466,0,0,1,47.338,68.157l14.121-3.981,6.914,7a2.042,2.042,0,0,0,2.907,0l6.914-7L84.3,65.9c-.112.107-.226.21-.335.32a22.453,22.453,0,0,0,2.974,34.267h-36V86.8a2.042,2.042,0,0,0-4.085,0v13.684H34.085Z" transform="translate(252.844 922.182)"/>
      <circle id="Ellipse_114" data-name="Ellipse 114" cx="2.042" cy="2.042" r="2.042" transform="translate(365.094 987.803)"/>
      <path id="Path_1071" data-name="Path 1071" d="M342.93,359.8a2.042,2.042,0,0,0-2.81.669L333.4,371.386l-5.324-6.084a2.042,2.042,0,1,0-3.074,2.69l7.148,8.169a2.045,2.045,0,0,0,3.277-.274l8.169-13.275a2.043,2.043,0,0,0-.669-2.81Z" transform="translate(18.491 636.106)"/>
      <path id="Path_1072" data-name="Path 1072" d="M206.63,218.511a2.042,2.042,0,0,0-2.837-2.938,3.87,3.87,0,0,1-5.332,0,2.042,2.042,0,0,0-2.837,2.938,7.989,7.989,0,0,0,11.007,0Z" transform="translate(121.543 751.093)"/>
      <circle id="Ellipse_115" data-name="Ellipse 115" cx="2.042" cy="2.042" r="2.042" transform="translate(329.307 954.043)"/>
      <circle id="Ellipse_116" data-name="Ellipse 116" cx="2.042" cy="2.042" r="2.042" transform="translate(311.947 954.043)"/>
      <circle id="Ellipse_117" data-name="Ellipse 117" cx="2" cy="2" r="2" transform="translate(320.844 1012.182)"/>
      <circle id="Ellipse_118" data-name="Ellipse 118" cx="2" cy="2" r="2" transform="translate(320.844 1003.182)"/>
    </g>
  </g>
</svg>
