<svg xmlns="http://www.w3.org/2000/svg" width="67.029" height="59.905" viewBox="0 0 67.029 59.905">
  <g id="online-booking" transform="translate(0 -27.19)">
    <path id="Path_1077" data-name="Path 1077" d="M65.8,166.843H64.346V142.784a.983.983,0,0,0-1.965,0v24.059H13.314a.983.983,0,1,0,0,1.965h51.75v.911a2.774,2.774,0,0,1-2.771,2.771H4.736a2.774,2.774,0,0,1-2.771-2.771v-.911H9.127a.983.983,0,1,0,0-1.965H4.648V132.637A2.954,2.954,0,0,1,7.6,129.686H18.775a.983.983,0,1,0,0-1.965H7.6a4.922,4.922,0,0,0-4.916,4.916v34.206H1.226A1.228,1.228,0,0,0,0,168.069v1.649a4.742,4.742,0,0,0,4.736,4.736H62.293a4.742,4.742,0,0,0,4.736-4.736v-1.649A1.228,1.228,0,0,0,65.8,166.843Z" transform="translate(0 -87.36)"/>
    <path id="Path_1078" data-name="Path 1078" d="M362.8,129.686h11.045a2.954,2.954,0,0,1,2.951,2.951V138.6a.983.983,0,1,0,1.965,0v-5.959a4.922,4.922,0,0,0-4.916-4.916H362.8a.983.983,0,0,0,0,1.965Z" transform="translate(-314.419 -87.36)"/>
    <path id="Path_1079" data-name="Path 1079" d="M50.482,158.707v31.258a.982.982,0,0,0,.983.983H103.3a.983.983,0,0,0,.983-.983l0-31.261a.983.983,0,0,0-.983-.982H91.117a.983.983,0,1,0,0,1.965h11.2l0,29.3H52.447V159.69H63.78a.983.983,0,1,0,0-1.965H51.465a.983.983,0,0,0-.983.983Z" transform="translate(-43.868 -113.43)"/>
    <path id="Path_1080" data-name="Path 1080" d="M176.646,51.212A12.025,12.025,0,0,0,188.657,39.2a11.879,11.879,0,0,0-1.309-5.452.983.983,0,0,0-1.75.893,9.932,9.932,0,0,1,1.094,4.558,10.053,10.053,0,1,1-3.464-7.585.983.983,0,0,0,1.289-1.484,12.01,12.01,0,1,0-7.871,21.08Z" transform="translate(-143.066)"/>
    <path id="Path_1081" data-name="Path 1081" d="M207.215,70.838a1.3,1.3,0,0,0-1.83,0l-5.343,5.343-1.852-1.852a1.3,1.3,0,0,0-1.83,0l-2.338,2.338a1.294,1.294,0,0,0,0,1.83l3.936,3.936a2.948,2.948,0,0,0,4.169,0l7.427-7.427a1.294,1.294,0,0,0,0-1.83Zm-6.478,10.207a.983.983,0,0,1-1.39,0l-3.462-3.462,1.39-1.389,1.852,1.852a1.3,1.3,0,0,0,1.83,0L206.3,72.7l1.389,1.389Z" transform="translate(-168.273 -37.601)"/>
    <path id="Path_1082" data-name="Path 1082" d="M166.971,321.528h19.354a2.337,2.337,0,0,0,2.334-2.334v-2.971a2.337,2.337,0,0,0-2.334-2.334H173.162a.983.983,0,0,0,0,1.965h13.163a.369.369,0,0,1,.369.369v2.971a.369.369,0,0,1-.369.369H166.971a.369.369,0,0,1-.369-.369v-2.971a.369.369,0,0,1,.369-.369h2a.983.983,0,0,0,0-1.965h-2a2.337,2.337,0,0,0-2.334,2.334v2.971A2.337,2.337,0,0,0,166.971,321.528Z" transform="translate(-143.068 -249.139)"/>
    <path id="Path_1083" data-name="Path 1083" d="M100.408,213.445a6.241,6.241,0,1,0-6.241,6.241,6.248,6.248,0,0,0,6.241-6.241Zm-6.241,4.276a4.276,4.276,0,1,1,4.276-4.276A4.281,4.281,0,0,1,94.166,217.721Z" transform="translate(-76.406 -156.43)"/>
    <path id="Path_1084" data-name="Path 1084" d="M207.213,237.16h1.522a.983.983,0,1,0,0-1.965h-1.522a.983.983,0,1,0,0,1.965Z" transform="translate(-179.212 -180.754)"/>
    <path id="Path_1085" data-name="Path 1085" d="M269.384,235.2H249.3a.983.983,0,0,0,0,1.965h20.088a.983.983,0,0,0,0-1.965Z" transform="translate(-215.782 -180.754)"/>
    <path id="Path_1086" data-name="Path 1086" d="M233.8,267.338a.982.982,0,0,0-.983-.983h-25.6a.983.983,0,0,0,0,1.965h25.6A.983.983,0,0,0,233.8,267.338Z" transform="translate(-179.212 -207.832)"/>
  </g>
</svg>
