<svg xmlns="http://www.w3.org/2000/svg" width="143" height="143" viewBox="0 0 143 143">
  <g id="payment" transform="translate(-909 -2762)">
    <circle id="Ellipse_119" data-name="Ellipse 119" cx="71.5" cy="71.5" r="71.5" transform="translate(909 2762)" fill="#e6e6e6" opacity="0.46"/>
    <circle id="Ellipse_120" data-name="Ellipse 120" cx="58.5" cy="58.5" r="58.5" transform="translate(921 2775)" fill="#ea691e"/>
    <g id="credit-card" transform="translate(937 2739.591)">
      <g id="Group_2338" data-name="Group 2338" transform="translate(0 61.409)">
        <path id="Path_1128" data-name="Path 1128" d="M492.447,97.713a.543.543,0,1,0,.543.543A.543.543,0,0,0,492.447,97.713Z" transform="translate(-411.006 -91.742)" fill="#fff" stroke="#fff" stroke-width="0.5"/>
        <path id="Path_1129" data-name="Path 1129" d="M492.447,183.93a.543.543,0,1,0-.543-.543A.543.543,0,0,0,492.447,183.93Z" transform="translate(-411.006 -162.873)" fill="#fff" stroke="#fff" stroke-width="0.5"/>
        <path id="Path_1130" data-name="Path 1130" d="M492.447,205.212a.543.543,0,1,0-.543-.543A.543.543,0,0,0,492.447,205.212Z" transform="translate(-411.006 -180.655)" fill="#fff" stroke="#fff" stroke-width="0.5"/>
        <path id="Path_1131" data-name="Path 1131" d="M492.447,226.495a.543.543,0,1,0-.543-.543A.543.543,0,0,0,492.447,226.495Z" transform="translate(-411.006 -198.438)" fill="#fff" stroke="#fff" stroke-width="0.5"/>
        <path id="Path_1132" data-name="Path 1132" d="M492.447,247.778a.543.543,0,1,0-.543-.543A.543.543,0,0,0,492.447,247.778Z" transform="translate(-411.006 -216.221)" fill="#fff" stroke="#fff" stroke-width="0.5"/>
        <path id="Path_1133" data-name="Path 1133" d="M492.447,269.06a.543.543,0,1,0-.543-.543A.543.543,0,0,0,492.447,269.06Z" transform="translate(-411.006 -234.002)" fill="#fff" stroke="#fff" stroke-width="0.5"/>
        <path id="Path_1134" data-name="Path 1134" d="M492.447,290.342a.543.543,0,1,0-.543-.543A.543.543,0,0,0,492.447,290.342Z" transform="translate(-411.006 -251.784)" fill="#fff" stroke="#fff" stroke-width="0.5"/>
        <path id="Path_1135" data-name="Path 1135" d="M492.447,311.625a.543.543,0,1,0-.543-.543A.543.543,0,0,0,492.447,311.625Z" transform="translate(-411.006 -269.567)" fill="#fff" stroke="#fff" stroke-width="0.5"/>
        <path id="Path_1136" data-name="Path 1136" d="M471.164,76.431a.543.543,0,1,0,.543.543A.543.543,0,0,0,471.164,76.431Z" transform="translate(-393.223 -73.96)" fill="#fff" stroke="#fff" stroke-width="0.5"/>
        <path id="Path_1137" data-name="Path 1137" d="M482.206,86.671a.543.543,0,1,0,.543.543A.543.543,0,0,0,482.206,86.671Z" transform="translate(-402.449 -82.516)" fill="#fff" stroke="#fff" stroke-width="0.5"/>
        <path id="Path_1138" data-name="Path 1138" d="M471.164,97.713a.543.543,0,1,0,.543.543A.543.543,0,0,0,471.164,97.713Z" transform="translate(-393.223 -91.742)" fill="#fff" stroke="#fff" stroke-width="0.5"/>
        <path id="Path_1139" data-name="Path 1139" d="M482.206,107.954a.543.543,0,1,0,.543.543A.543.543,0,0,0,482.206,107.954Z" transform="translate(-402.449 -100.299)" fill="#fff" stroke="#fff" stroke-width="0.5"/>
        <path id="Path_1140" data-name="Path 1140" d="M471.164,183.93a.543.543,0,1,0-.543-.543A.543.543,0,0,0,471.164,183.93Z" transform="translate(-393.223 -162.873)" fill="#fff" stroke="#fff" stroke-width="0.5"/>
        <path id="Path_1141" data-name="Path 1141" d="M482.206,194.171a.543.543,0,1,0-.543-.543A.543.543,0,0,0,482.206,194.171Z" transform="translate(-402.449 -171.43)" fill="#fff" stroke="#fff" stroke-width="0.5"/>
        <path id="Path_1142" data-name="Path 1142" d="M471.164,205.212a.543.543,0,1,0-.543-.543A.543.543,0,0,0,471.164,205.212Z" transform="translate(-393.223 -180.655)" fill="#fff" stroke="#fff" stroke-width="0.5"/>
        <path id="Path_1143" data-name="Path 1143" d="M482.206,215.453a.543.543,0,1,0-.543-.543A.543.543,0,0,0,482.206,215.453Z" transform="translate(-402.449 -189.212)" fill="#fff" stroke="#fff" stroke-width="0.5"/>
        <path id="Path_1144" data-name="Path 1144" d="M471.164,226.495a.543.543,0,1,0-.543-.543A.543.543,0,0,0,471.164,226.495Z" transform="translate(-393.223 -198.438)" fill="#fff" stroke="#fff" stroke-width="0.5"/>
        <path id="Path_1145" data-name="Path 1145" d="M482.206,236.735a.543.543,0,1,0-.543-.543A.543.543,0,0,0,482.206,236.735Z" transform="translate(-402.449 -206.994)" fill="#fff" stroke="#fff" stroke-width="0.5"/>
        <path id="Path_1146" data-name="Path 1146" d="M471.164,247.778a.543.543,0,1,0-.543-.543A.543.543,0,0,0,471.164,247.778Z" transform="translate(-393.223 -216.221)" fill="#fff" stroke="#fff" stroke-width="0.5"/>
        <path id="Path_1147" data-name="Path 1147" d="M482.206,258.018a.543.543,0,1,0-.543-.543A.543.543,0,0,0,482.206,258.018Z" transform="translate(-402.449 -224.776)" fill="#fff" stroke="#fff" stroke-width="0.5"/>
        <path id="Path_1148" data-name="Path 1148" d="M471.164,269.06a.543.543,0,1,0-.543-.543A.543.543,0,0,0,471.164,269.06Z" transform="translate(-393.223 -234.002)" fill="#fff" stroke="#fff" stroke-width="0.5"/>
        <path id="Path_1149" data-name="Path 1149" d="M482.206,279.3a.543.543,0,1,0-.543-.543A.543.543,0,0,0,482.206,279.3Z" transform="translate(-402.449 -242.559)" fill="#fff" stroke="#fff" stroke-width="0.5"/>
        <path id="Path_1150" data-name="Path 1150" d="M471.164,290.342a.543.543,0,1,0-.543-.543A.543.543,0,0,0,471.164,290.342Z" transform="translate(-393.223 -251.784)" fill="#fff" stroke="#fff" stroke-width="0.5"/>
        <path id="Path_1151" data-name="Path 1151" d="M482.206,300.583a.543.543,0,1,0-.543-.543A.543.543,0,0,0,482.206,300.583Z" transform="translate(-402.449 -260.341)" fill="#fff" stroke="#fff" stroke-width="0.5"/>
        <path id="Path_1152" data-name="Path 1152" d="M471.164,311.625a.543.543,0,1,0-.543-.543A.543.543,0,0,0,471.164,311.625Z" transform="translate(-393.223 -269.567)" fill="#fff" stroke="#fff" stroke-width="0.5"/>
        <path id="Path_1153" data-name="Path 1153" d="M482.206,321.866a.543.543,0,1,0-.543-.543A.543.543,0,0,0,482.206,321.866Z" transform="translate(-402.449 -278.124)" fill="#fff" stroke="#fff" stroke-width="0.5"/>
        <path id="Path_1154" data-name="Path 1154" d="M471.164,332.908a.543.543,0,1,0-.543-.543A.543.543,0,0,0,471.164,332.908Z" transform="translate(-393.223 -287.35)" fill="#fff" stroke="#fff" stroke-width="0.5"/>
        <path id="Path_1155" data-name="Path 1155" d="M449.882,76.431a.543.543,0,1,0,.543.543A.543.543,0,0,0,449.882,76.431Z" transform="translate(-375.441 -73.96)" fill="#fff" stroke="#fff" stroke-width="0.5"/>
        <path id="Path_1156" data-name="Path 1156" d="M460.924,86.671a.543.543,0,1,0,.543.543A.543.543,0,0,0,460.924,86.671Z" transform="translate(-384.667 -82.516)" fill="#fff" stroke="#fff" stroke-width="0.5"/>
        <path id="Path_1157" data-name="Path 1157" d="M449.882,97.713a.543.543,0,1,0,.543.543A.543.543,0,0,0,449.882,97.713Z" transform="translate(-375.441 -91.742)" fill="#fff" stroke="#fff" stroke-width="0.5"/>
        <path id="Path_1158" data-name="Path 1158" d="M460.924,107.954a.543.543,0,1,0,.543.543A.543.543,0,0,0,460.924,107.954Z" transform="translate(-384.667 -100.299)" fill="#fff" stroke="#fff" stroke-width="0.5"/>
        <path id="Path_1159" data-name="Path 1159" d="M449.882,183.93a.543.543,0,1,0-.543-.543A.543.543,0,0,0,449.882,183.93Z" transform="translate(-375.441 -162.873)" fill="#fff" stroke="#fff" stroke-width="0.5"/>
        <path id="Path_1160" data-name="Path 1160" d="M460.924,194.171a.543.543,0,1,0-.543-.543A.543.543,0,0,0,460.924,194.171Z" transform="translate(-384.667 -171.43)" fill="#fff" stroke="#fff" stroke-width="0.5"/>
        <path id="Path_1161" data-name="Path 1161" d="M449.882,205.212a.543.543,0,1,0-.543-.543A.543.543,0,0,0,449.882,205.212Z" transform="translate(-375.441 -180.655)" fill="#fff" stroke="#fff" stroke-width="0.5"/>
        <path id="Path_1162" data-name="Path 1162" d="M460.924,215.453a.543.543,0,1,0-.543-.543A.543.543,0,0,0,460.924,215.453Z" transform="translate(-384.667 -189.212)" fill="#fff" stroke="#fff" stroke-width="0.5"/>
        <path id="Path_1163" data-name="Path 1163" d="M449.882,226.495a.543.543,0,1,0-.543-.543A.543.543,0,0,0,449.882,226.495Z" transform="translate(-375.441 -198.438)" fill="#fff" stroke="#fff" stroke-width="0.5"/>
        <path id="Path_1164" data-name="Path 1164" d="M460.924,236.735a.543.543,0,1,0-.543-.543A.543.543,0,0,0,460.924,236.735Z" transform="translate(-384.667 -206.994)" fill="#fff" stroke="#fff" stroke-width="0.5"/>
        <path id="Path_1165" data-name="Path 1165" d="M460.924,299.5a.543.543,0,1,0,.543.543A.543.543,0,0,0,460.924,299.5Z" transform="translate(-384.667 -260.341)" fill="#fff" stroke="#fff" stroke-width="0.5"/>
        <path id="Path_1166" data-name="Path 1166" d="M449.882,310.538a.543.543,0,1,0,.543.543A.543.543,0,0,0,449.882,310.538Z" transform="translate(-375.441 -269.566)" fill="#fff" stroke="#fff" stroke-width="0.5"/>
        <path id="Path_1167" data-name="Path 1167" d="M460.924,320.779a.543.543,0,1,0,.543.543A.543.543,0,0,0,460.924,320.779Z" transform="translate(-384.667 -278.123)" fill="#fff" stroke="#fff" stroke-width="0.5"/>
        <path id="Path_1168" data-name="Path 1168" d="M449.882,331.821a.543.543,0,1,0,.543.543A.543.543,0,0,0,449.882,331.821Z" transform="translate(-375.441 -287.349)" fill="#fff" stroke="#fff" stroke-width="0.5"/>
        <path id="Path_1169" data-name="Path 1169" d="M428.6,76.431a.543.543,0,1,0,.543.543A.543.543,0,0,0,428.6,76.431Z" transform="translate(-357.658 -73.96)" fill="#fff" stroke="#fff" stroke-width="0.5"/>
        <path id="Path_1170" data-name="Path 1170" d="M439.641,86.671a.543.543,0,1,0,.543.543A.543.543,0,0,0,439.641,86.671Z" transform="translate(-366.884 -82.516)" fill="#fff" stroke="#fff" stroke-width="0.5"/>
        <path id="Path_1171" data-name="Path 1171" d="M428.6,97.713a.543.543,0,1,0,.543.543A.543.543,0,0,0,428.6,97.713Z" transform="translate(-357.658 -91.742)" fill="#fff" stroke="#fff" stroke-width="0.5"/>
        <path id="Path_1172" data-name="Path 1172" d="M439.641,107.954a.543.543,0,1,0,.543.543A.543.543,0,0,0,439.641,107.954Z" transform="translate(-366.884 -100.299)" fill="#fff" stroke="#fff" stroke-width="0.5"/>
        <path id="Path_1173" data-name="Path 1173" d="M428.6,183.93a.543.543,0,1,0-.543-.543A.543.543,0,0,0,428.6,183.93Z" transform="translate(-357.658 -162.873)" fill="#fff" stroke="#fff" stroke-width="0.5"/>
        <path id="Path_1174" data-name="Path 1174" d="M439.641,194.171a.543.543,0,1,0-.543-.543A.543.543,0,0,0,439.641,194.171Z" transform="translate(-366.884 -171.43)" fill="#fff" stroke="#fff" stroke-width="0.5"/>
        <path id="Path_1175" data-name="Path 1175" d="M428.6,205.212a.543.543,0,1,0-.543-.543A.543.543,0,0,0,428.6,205.212Z" transform="translate(-357.658 -180.655)" fill="#fff" stroke="#fff" stroke-width="0.5"/>
        <path id="Path_1176" data-name="Path 1176" d="M439.641,215.453a.543.543,0,1,0-.543-.543A.543.543,0,0,0,439.641,215.453Z" transform="translate(-366.884 -189.212)" fill="#fff" stroke="#fff" stroke-width="0.5"/>
        <path id="Path_1177" data-name="Path 1177" d="M428.6,226.495a.543.543,0,1,0-.543-.543A.543.543,0,0,0,428.6,226.495Z" transform="translate(-357.658 -198.438)" fill="#fff" stroke="#fff" stroke-width="0.5"/>
        <path id="Path_1178" data-name="Path 1178" d="M439.641,236.735a.543.543,0,1,0-.543-.543A.543.543,0,0,0,439.641,236.735Z" transform="translate(-366.884 -206.994)" fill="#fff" stroke="#fff" stroke-width="0.5"/>
        <path id="Path_1179" data-name="Path 1179" d="M428.6,310.538a.543.543,0,1,0,.543.543A.543.543,0,0,0,428.6,310.538Z" transform="translate(-357.658 -269.566)" fill="#fff" stroke="#fff" stroke-width="0.5"/>
        <path id="Path_1180" data-name="Path 1180" d="M439.641,320.779a.543.543,0,1,0,.543.543A.543.543,0,0,0,439.641,320.779Z" transform="translate(-366.884 -278.123)" fill="#fff" stroke="#fff" stroke-width="0.5"/>
        <path id="Path_1181" data-name="Path 1181" d="M428.6,331.821a.543.543,0,1,0,.543.543A.543.543,0,0,0,428.6,331.821Z" transform="translate(-357.658 -287.349)" fill="#fff" stroke="#fff" stroke-width="0.5"/>
        <path id="Path_1182" data-name="Path 1182" d="M407.317,76.431a.543.543,0,1,0,.543.543A.543.543,0,0,0,407.317,76.431Z" transform="translate(-339.876 -73.96)" fill="#fff" stroke="#fff" stroke-width="0.5"/>
        <path id="Path_1183" data-name="Path 1183" d="M418.358,86.671a.543.543,0,1,0,.543.543A.543.543,0,0,0,418.358,86.671Z" transform="translate(-349.101 -82.516)" fill="#fff" stroke="#fff" stroke-width="0.5"/>
        <path id="Path_1184" data-name="Path 1184" d="M407.317,97.713a.543.543,0,1,0,.543.543A.543.543,0,0,0,407.317,97.713Z" transform="translate(-339.876 -91.742)" fill="#fff" stroke="#fff" stroke-width="0.5"/>
        <path id="Path_1185" data-name="Path 1185" d="M418.358,107.954a.543.543,0,1,0,.543.543A.543.543,0,0,0,418.358,107.954Z" transform="translate(-349.101 -100.299)" fill="#fff" stroke="#fff" stroke-width="0.5"/>
        <path id="Path_1186" data-name="Path 1186" d="M418.358,194.171a.543.543,0,1,0-.543-.543A.543.543,0,0,0,418.358,194.171Z" transform="translate(-349.101 -171.43)" fill="#fff" stroke="#fff" stroke-width="0.5"/>
        <path id="Path_1187" data-name="Path 1187" d="M418.358,215.453a.543.543,0,1,0-.543-.543A.543.543,0,0,0,418.358,215.453Z" transform="translate(-349.101 -189.212)" fill="#fff" stroke="#fff" stroke-width="0.5"/>
        <path id="Path_1188" data-name="Path 1188" d="M418.358,236.735a.543.543,0,1,0-.543-.543A.543.543,0,0,0,418.358,236.735Z" transform="translate(-349.101 -206.994)" fill="#fff" stroke="#fff" stroke-width="0.5"/>
        <path id="Path_1189" data-name="Path 1189" d="M418.358,320.779a.543.543,0,1,0,.543.543A.543.543,0,0,0,418.358,320.779Z" transform="translate(-349.101 -278.123)" fill="#fff" stroke="#fff" stroke-width="0.5"/>
        <path id="Path_1190" data-name="Path 1190" d="M386.034,76.431a.543.543,0,1,0,.543.543A.543.543,0,0,0,386.034,76.431Z" transform="translate(-322.093 -73.96)" fill="#fff" stroke="#fff" stroke-width="0.5"/>
        <path id="Path_1191" data-name="Path 1191" d="M397.076,86.671a.543.543,0,1,0,.543.543A.543.543,0,0,0,397.076,86.671Z" transform="translate(-331.319 -82.516)" fill="#fff" stroke="#fff" stroke-width="0.5"/>
        <path id="Path_1192" data-name="Path 1192" d="M386.034,97.713a.543.543,0,1,0,.543.543A.543.543,0,0,0,386.034,97.713Z" transform="translate(-322.093 -91.742)" fill="#fff" stroke="#fff" stroke-width="0.5"/>
        <path id="Path_1193" data-name="Path 1193" d="M397.076,107.954a.543.543,0,1,0,.543.543A.543.543,0,0,0,397.076,107.954Z" transform="translate(-331.319 -100.299)" fill="#fff" stroke="#fff" stroke-width="0.5"/>
        <path id="Path_1194" data-name="Path 1194" d="M364.751,76.431a.543.543,0,1,0,.543.543A.543.543,0,0,0,364.751,76.431Z" transform="translate(-304.311 -73.96)" fill="#fff" stroke="#fff" stroke-width="0.5"/>
        <path id="Path_1195" data-name="Path 1195" d="M375.793,86.671a.543.543,0,1,0,.543.543A.543.543,0,0,0,375.793,86.671Z" transform="translate(-313.537 -82.516)" fill="#fff" stroke="#fff" stroke-width="0.5"/>
        <path id="Path_1196" data-name="Path 1196" d="M364.751,97.713a.543.543,0,1,0,.543.543A.543.543,0,0,0,364.751,97.713Z" transform="translate(-304.311 -91.742)" fill="#fff" stroke="#fff" stroke-width="0.5"/>
        <path id="Path_1197" data-name="Path 1197" d="M375.793,107.954a.543.543,0,1,0,.543.543A.543.543,0,0,0,375.793,107.954Z" transform="translate(-313.537 -100.299)" fill="#fff" stroke="#fff" stroke-width="0.5"/>
        <path id="Path_1198" data-name="Path 1198" d="M343.469,76.431a.543.543,0,1,0,.543.543A.543.543,0,0,0,343.469,76.431Z" transform="translate(-286.529 -73.96)" fill="#fff" stroke="#fff" stroke-width="0.5"/>
        <path id="Path_1199" data-name="Path 1199" d="M354.511,86.671a.543.543,0,1,0,.543.543A.543.543,0,0,0,354.511,86.671Z" transform="translate(-295.755 -82.516)" fill="#fff" stroke="#fff" stroke-width="0.5"/>
        <path id="Path_1200" data-name="Path 1200" d="M343.469,97.713a.543.543,0,1,0,.543.543A.543.543,0,0,0,343.469,97.713Z" transform="translate(-286.529 -91.742)" fill="#fff" stroke="#fff" stroke-width="0.5"/>
        <path id="Path_1201" data-name="Path 1201" d="M354.511,107.954a.543.543,0,1,0,.543.543A.543.543,0,0,0,354.511,107.954Z" transform="translate(-295.755 -100.299)" fill="#fff" stroke="#fff" stroke-width="0.5"/>
        <path id="Path_1202" data-name="Path 1202" d="M322.187,76.431a.543.543,0,1,0,.543.543A.543.543,0,0,0,322.187,76.431Z" transform="translate(-268.747 -73.96)" fill="#fff" stroke="#fff" stroke-width="0.5"/>
        <path id="Path_1203" data-name="Path 1203" d="M333.229,86.671a.543.543,0,1,0,.543.543A.543.543,0,0,0,333.229,86.671Z" transform="translate(-277.973 -82.516)" fill="#fff" stroke="#fff" stroke-width="0.5"/>
        <path id="Path_1204" data-name="Path 1204" d="M322.187,97.713a.543.543,0,1,0,.543.543A.543.543,0,0,0,322.187,97.713Z" transform="translate(-268.747 -91.742)" fill="#fff" stroke="#fff" stroke-width="0.5"/>
        <path id="Path_1205" data-name="Path 1205" d="M333.229,107.954a.543.543,0,1,0,.543.543A.543.543,0,0,0,333.229,107.954Z" transform="translate(-277.973 -100.299)" fill="#fff" stroke="#fff" stroke-width="0.5"/>
        <path id="Path_1206" data-name="Path 1206" d="M300.9,76.431a.543.543,0,1,0,.543.543A.543.543,0,0,0,300.9,76.431Z" transform="translate(-250.964 -73.96)" fill="#fff" stroke="#fff" stroke-width="0.5"/>
        <path id="Path_1207" data-name="Path 1207" d="M311.946,86.671a.543.543,0,1,0,.543.543A.543.543,0,0,0,311.946,86.671Z" transform="translate(-260.19 -82.516)" fill="#fff" stroke="#fff" stroke-width="0.5"/>
        <path id="Path_1208" data-name="Path 1208" d="M300.9,97.713a.543.543,0,1,0,.543.543A.543.543,0,0,0,300.9,97.713Z" transform="translate(-250.964 -91.742)" fill="#fff" stroke="#fff" stroke-width="0.5"/>
        <path id="Path_1209" data-name="Path 1209" d="M311.946,107.954a.543.543,0,1,0,.543.543A.543.543,0,0,0,311.946,107.954Z" transform="translate(-260.19 -100.299)" fill="#fff" stroke="#fff" stroke-width="0.5"/>
        <path id="Path_1210" data-name="Path 1210" d="M279.621,76.431a.543.543,0,1,0,.543.543A.543.543,0,0,0,279.621,76.431Z" transform="translate(-233.181 -73.96)" fill="#fff" stroke="#fff" stroke-width="0.5"/>
        <path id="Path_1211" data-name="Path 1211" d="M290.663,86.671a.543.543,0,1,0,.543.543A.543.543,0,0,0,290.663,86.671Z" transform="translate(-242.407 -82.516)" fill="#fff" stroke="#fff" stroke-width="0.5"/>
        <path id="Path_1212" data-name="Path 1212" d="M279.621,97.713a.543.543,0,1,0,.543.543A.543.543,0,0,0,279.621,97.713Z" transform="translate(-233.181 -91.742)" fill="#fff" stroke="#fff" stroke-width="0.5"/>
        <path id="Path_1213" data-name="Path 1213" d="M290.663,107.954a.543.543,0,1,0,.543.543A.543.543,0,0,0,290.663,107.954Z" transform="translate(-242.407 -100.299)" fill="#fff" stroke="#fff" stroke-width="0.5"/>
        <path id="Path_1214" data-name="Path 1214" d="M258.339,76.431a.543.543,0,1,0,.543.543A.543.543,0,0,0,258.339,76.431Z" transform="translate(-215.399 -73.96)" fill="#fff" stroke="#fff" stroke-width="0.5"/>
        <path id="Path_1215" data-name="Path 1215" d="M269.381,86.671a.543.543,0,1,0,.543.543A.543.543,0,0,0,269.381,86.671Z" transform="translate(-224.625 -82.516)" fill="#fff" stroke="#fff" stroke-width="0.5"/>
        <path id="Path_1216" data-name="Path 1216" d="M258.339,97.713a.543.543,0,1,0,.543.543A.543.543,0,0,0,258.339,97.713Z" transform="translate(-215.399 -91.742)" fill="#fff" stroke="#fff" stroke-width="0.5"/>
        <path id="Path_1217" data-name="Path 1217" d="M269.381,107.954a.543.543,0,1,0,.543.543A.543.543,0,0,0,269.381,107.954Z" transform="translate(-224.625 -100.299)" fill="#fff" stroke="#fff" stroke-width="0.5"/>
        <path id="Path_1218" data-name="Path 1218" d="M237.056,76.431a.543.543,0,1,0,.543.543A.543.543,0,0,0,237.056,76.431Z" transform="translate(-197.616 -73.96)" fill="#fff" stroke="#fff" stroke-width="0.5"/>
        <path id="Path_1219" data-name="Path 1219" d="M248.1,86.671a.543.543,0,1,0,.543.543A.543.543,0,0,0,248.1,86.671Z" transform="translate(-206.842 -82.516)" fill="#fff" stroke="#fff" stroke-width="0.5"/>
        <path id="Path_1220" data-name="Path 1220" d="M237.056,97.713a.543.543,0,1,0,.543.543A.543.543,0,0,0,237.056,97.713Z" transform="translate(-197.616 -91.742)" fill="#fff" stroke="#fff" stroke-width="0.5"/>
        <path id="Path_1221" data-name="Path 1221" d="M248.1,107.954a.543.543,0,1,0,.543.543A.543.543,0,0,0,248.1,107.954Z" transform="translate(-206.842 -100.299)" fill="#fff" stroke="#fff" stroke-width="0.5"/>
        <path id="Path_1222" data-name="Path 1222" d="M215.774,76.431a.543.543,0,1,0,.543.543A.543.543,0,0,0,215.774,76.431Z" transform="translate(-179.834 -73.96)" fill="#fff" stroke="#fff" stroke-width="0.5"/>
        <path id="Path_1223" data-name="Path 1223" d="M226.816,86.671a.543.543,0,1,0,.543.543A.543.543,0,0,0,226.816,86.671Z" transform="translate(-189.06 -82.516)" fill="#fff" stroke="#fff" stroke-width="0.5"/>
        <path id="Path_1224" data-name="Path 1224" d="M215.774,97.713a.543.543,0,1,0,.543.543A.543.543,0,0,0,215.774,97.713Z" transform="translate(-179.834 -91.742)" fill="#fff" stroke="#fff" stroke-width="0.5"/>
        <path id="Path_1225" data-name="Path 1225" d="M226.816,107.954a.543.543,0,1,0,.543.543A.543.543,0,0,0,226.816,107.954Z" transform="translate(-189.06 -100.299)" fill="#fff" stroke="#fff" stroke-width="0.5"/>
        <path id="Path_1226" data-name="Path 1226" d="M194.491,76.431a.543.543,0,1,0,.543.543A.543.543,0,0,0,194.491,76.431Z" transform="translate(-162.051 -73.96)" fill="#fff" stroke="#fff" stroke-width="0.5"/>
        <path id="Path_1227" data-name="Path 1227" d="M205.533,86.671a.543.543,0,1,0,.543.543A.543.543,0,0,0,205.533,86.671Z" transform="translate(-171.278 -82.516)" fill="#fff" stroke="#fff" stroke-width="0.5"/>
        <path id="Path_1228" data-name="Path 1228" d="M194.491,97.713a.543.543,0,1,0,.543.543A.543.543,0,0,0,194.491,97.713Z" transform="translate(-162.051 -91.742)" fill="#fff" stroke="#fff" stroke-width="0.5"/>
        <path id="Path_1229" data-name="Path 1229" d="M205.533,107.954a.543.543,0,1,0,.543.543A.543.543,0,0,0,205.533,107.954Z" transform="translate(-171.278 -100.299)" fill="#fff" stroke="#fff" stroke-width="0.5"/>
        <path id="Path_1230" data-name="Path 1230" d="M173.209,76.431a.543.543,0,1,0,.543.543A.543.543,0,0,0,173.209,76.431Z" transform="translate(-144.27 -73.96)" fill="#fff" stroke="#fff" stroke-width="0.5"/>
        <path id="Path_1231" data-name="Path 1231" d="M184.251,86.671a.543.543,0,1,0,.543.543A.543.543,0,0,0,184.251,86.671Z" transform="translate(-153.496 -82.516)" fill="#fff" stroke="#fff" stroke-width="0.5"/>
        <path id="Path_1232" data-name="Path 1232" d="M173.209,97.713a.543.543,0,1,0,.543.543A.543.543,0,0,0,173.209,97.713Z" transform="translate(-144.27 -91.742)" fill="#fff" stroke="#fff" stroke-width="0.5"/>
        <path id="Path_1233" data-name="Path 1233" d="M184.251,107.954a.543.543,0,1,0,.543.543A.543.543,0,0,0,184.251,107.954Z" transform="translate(-153.496 -100.299)" fill="#fff" stroke="#fff" stroke-width="0.5"/>
        <path id="Path_1234" data-name="Path 1234" d="M151.926,76.431a.543.543,0,1,0,.543.543A.543.543,0,0,0,151.926,76.431Z" transform="translate(-126.487 -73.96)" fill="#fff" stroke="#fff" stroke-width="0.5"/>
        <path id="Path_1235" data-name="Path 1235" d="M162.968,86.671a.543.543,0,1,0,.543.543A.543.543,0,0,0,162.968,86.671Z" transform="translate(-135.713 -82.516)" fill="#fff" stroke="#fff" stroke-width="0.5"/>
        <path id="Path_1236" data-name="Path 1236" d="M151.926,97.713a.543.543,0,1,0,.543.543A.543.543,0,0,0,151.926,97.713Z" transform="translate(-126.487 -91.742)" fill="#fff" stroke="#fff" stroke-width="0.5"/>
        <path id="Path_1237" data-name="Path 1237" d="M162.968,107.954a.543.543,0,1,0,.543.543A.543.543,0,0,0,162.968,107.954Z" transform="translate(-135.713 -100.299)" fill="#fff" stroke="#fff" stroke-width="0.5"/>
        <path id="Path_1238" data-name="Path 1238" d="M130.644,76.431a.543.543,0,1,0,.543.543A.543.543,0,0,0,130.644,76.431Z" transform="translate(-108.705 -73.96)" fill="#fff" stroke="#fff" stroke-width="0.5"/>
        <path id="Path_1239" data-name="Path 1239" d="M141.686,86.671a.543.543,0,1,0,.543.543A.543.543,0,0,0,141.686,86.671Z" transform="translate(-117.931 -82.516)" fill="#fff" stroke="#fff" stroke-width="0.5"/>
        <path id="Path_1240" data-name="Path 1240" d="M130.644,97.713a.543.543,0,1,0,.543.543A.543.543,0,0,0,130.644,97.713Z" transform="translate(-108.705 -91.742)" fill="#fff" stroke="#fff" stroke-width="0.5"/>
        <path id="Path_1241" data-name="Path 1241" d="M141.686,107.954a.543.543,0,1,0,.543.543A.543.543,0,0,0,141.686,107.954Z" transform="translate(-117.931 -100.299)" fill="#fff" stroke="#fff" stroke-width="0.5"/>
        <path id="Path_1242" data-name="Path 1242" d="M120.4,86.671a.543.543,0,1,0,.543.543A.543.543,0,0,0,120.4,86.671Z" transform="translate(-100.148 -82.516)" fill="#fff" stroke="#fff" stroke-width="0.5"/>
        <path id="Path_1243" data-name="Path 1243" d="M109.361,97.713a.543.543,0,1,0,.543.543A.543.543,0,0,0,109.361,97.713Z" transform="translate(-90.922 -91.742)" fill="#fff" stroke="#fff" stroke-width="0.5"/>
        <path id="Path_1244" data-name="Path 1244" d="M120.4,107.954a.543.543,0,1,0,.543.543A.543.543,0,0,0,120.4,107.954Z" transform="translate(-100.148 -100.299)" fill="#fff" stroke="#fff" stroke-width="0.5"/>
        <path id="Path_1245" data-name="Path 1245" d="M77.211,61.409H22.943A7,7,0,0,0,15.952,68.4v8.96H6.992A7,7,0,0,0,0,84.352v34.07a7,7,0,0,0,6.992,6.992H61.26a7,7,0,0,0,6.992-6.992v-8.96h8.96a7,7,0,0,0,6.992-6.992V68.4A7,7,0,0,0,77.211,61.409ZM66.923,118.422a5.669,5.669,0,0,1-5.663,5.663H6.992a5.669,5.669,0,0,1-5.663-5.663V84.352a5.669,5.669,0,0,1,5.663-5.663H61.26a5.669,5.669,0,0,1,5.663,5.663ZM82.874,102.47a5.632,5.632,0,0,1-1.192,3.469.537.537,0,0,0-.241-.059.54.54,0,0,0-.466.817,5.639,5.639,0,0,1-3.763,1.436H76.8c0-.009,0-.017,0-.025a.543.543,0,0,0-1.086,0c0,.009,0,.017,0,.025H73.3c0-.009,0-.017,0-.025a.543.543,0,0,0-1.086,0c0,.009,0,.017,0,.025H69.8c0-.009,0-.017,0-.025a.543.543,0,1,0-1.086,0c0,.009,0,.017,0,.025h-.465v-7.209h.5a.537.537,0,0,0-.034.183.543.543,0,1,0,1.086,0,.537.537,0,0,0-.034-.183h2.482a.537.537,0,0,0-.034.183.543.543,0,1,0,1.044-.209,4.027,4.027,0,0,0,3.569-4v-.683a4,4,0,0,0-.342-1.621.541.541,0,1,0-.562-.916,4.054,4.054,0,0,0-1.063-.918.537.537,0,0,0,.123-.341.542.542,0,0,0-1.079-.072,4.01,4.01,0,0,0-1.1-.154H71.434a.541.541,0,0,0-.985,0h-2.2V84.352a6.947,6.947,0,0,0-.7-3.054H82.875V102.47ZM72.8,93.526A2.7,2.7,0,0,1,75.5,96.219V96.9A2.7,2.7,0,0,1,72.8,99.6H68.252v-6.07ZM82.874,70.834H17.28V68.4a5.632,5.632,0,0,1,1.166-3.436.543.543,0,0,0,.536-.542.524.524,0,0,0-.005-.058,5.643,5.643,0,0,1,3.967-1.627h.287a.541.541,0,0,0,1.05,0h2.45a.541.541,0,0,0,1.05,0h2.45a.541.541,0,0,0,1.05,0h2.45a.541.541,0,0,0,1.05,0h2.45a.541.541,0,0,0,1.05,0h2.45a.541.541,0,0,0,1.05,0h2.45a.541.541,0,0,0,1.05,0h2.45a.541.541,0,0,0,1.05,0h2.45a.541.541,0,0,0,1.05,0h2.45a.541.541,0,0,0,1.05,0h2.45a.541.541,0,0,0,1.05,0h2.45a.541.541,0,0,0,1.05,0h2.45a.541.541,0,0,0,1.05,0h2.45a.541.541,0,0,0,1.05,0h2.45a.541.541,0,0,0,1.05,0h2.45a.541.541,0,0,0,1.05,0h.43a5.639,5.639,0,0,1,3.754,1.428.54.54,0,0,0,.7.748A5.634,5.634,0,0,1,82.876,68.4v2.434Z" transform="translate(0 -61.409)" fill="#fff" stroke="#fff" stroke-width="0.5"/>
        <path id="Path_1246" data-name="Path 1246" d="M60.543,209.846a2.4,2.4,0,0,0-2.393-2.393H47.928a2.4,2.4,0,0,0-2.393,2.393v6.614a2.4,2.4,0,0,0,2.393,2.393H58.15a2.4,2.4,0,0,0,2.393-2.393Zm-1.329,6.614a1.065,1.065,0,0,1-1.064,1.064H47.928a1.065,1.065,0,0,1-1.064-1.064v-6.614a1.066,1.066,0,0,1,1.064-1.064H58.15a1.066,1.066,0,0,1,1.064,1.064Z" transform="translate(-38.046 -183.435)" fill="#fff" stroke="#fff" stroke-width="0.5"/>
        <path id="Path_1247" data-name="Path 1247" d="M46.2,338.7h11a.664.664,0,1,0,0-1.329h-11a.664.664,0,1,0,0,1.329Z" transform="translate(-38.046 -291.983)" fill="#fff" stroke="#fff" stroke-width="0.5"/>
        <path id="Path_1248" data-name="Path 1248" d="M152.578,337.367H141.464a.664.664,0,1,0,0,1.329h11.113a.664.664,0,1,0,0-1.329Z" transform="translate(-117.644 -291.983)" fill="#fff" stroke="#fff" stroke-width="0.5"/>
        <path id="Path_1249" data-name="Path 1249" d="M47.2,380.234h-1a.664.664,0,1,0,0,1.329h1a.664.664,0,1,0,0-1.329Z" transform="translate(-38.046 -327.8)" fill="#fff" stroke="#fff" stroke-width="0.5"/>
        <path id="Path_1250" data-name="Path 1250" d="M171.079,380.234h-1.988a.664.664,0,1,0,0,1.329h1.988a.664.664,0,1,0,0-1.329Z" transform="translate(-140.728 -327.8)" fill="#fff" stroke="#fff" stroke-width="0.5"/>
        <path id="Path_1251" data-name="Path 1251" d="M106.62,380.234h-1.988a.664.664,0,1,0,0,1.329h1.988a.664.664,0,1,0,0-1.329Z" transform="translate(-86.869 -327.8)" fill="#fff" stroke="#fff" stroke-width="0.5"/>
        <path id="Path_1252" data-name="Path 1252" d="M138.849,380.234h-1.988a.664.664,0,1,0,0,1.329h1.988a.664.664,0,1,0,0-1.329Z" transform="translate(-113.798 -327.8)" fill="#fff" stroke="#fff" stroke-width="0.5"/>
        <path id="Path_1253" data-name="Path 1253" d="M74.39,380.234H72.4a.664.664,0,1,0,0,1.329H74.39a.664.664,0,1,0,0-1.329Z" transform="translate(-59.94 -327.8)" fill="#fff" stroke="#fff" stroke-width="0.5"/>
        <path id="Path_1254" data-name="Path 1254" d="M202.317,380.234h-1a.664.664,0,1,0,0,1.329h1a.664.664,0,1,0,0-1.329Z" transform="translate(-167.656 -327.8)" fill="#fff" stroke="#fff" stroke-width="0.5"/>
      </g>
    </g>
  </g>
</svg>
