<svg xmlns="http://www.w3.org/2000/svg" width="143" height="143" viewBox="0 0 143 143">
  <g id="process" transform="translate(-909 -2572)">
    <g id="process-2" data-name="process" transform="translate(95)">
      <circle id="Ellipse_119" data-name="Ellipse 119" cx="71.5" cy="71.5" r="71.5" transform="translate(814 2572)" fill="#e6e6e6" opacity="0.46"/>
      <circle id="Ellipse_120" data-name="Ellipse 120" cx="58.5" cy="58.5" r="58.5" transform="translate(827 2585)" fill="#ea691e"/>
    </g>
    <g id="web" transform="translate(939 2608)">
      <path id="Path_1114" data-name="Path 1114" d="M72.375,167.225h6.849a1.044,1.044,0,0,0,1.043-1.042v-2.315a.716.716,0,0,0-1.431,0v1.927H72.763v-6.062H75.8a.716.716,0,1,0,0-1.431H72.375a1.044,1.044,0,0,0-1.043,1.042v6.84A1.044,1.044,0,0,0,72.375,167.225Z" transform="translate(-52.256 -130.612)" fill="#fff" stroke="#fff" stroke-width="0.5"/>
      <path id="Path_1115" data-name="Path 1115" d="M101.854,153.71a.716.716,0,0,0-1.008.092l-3.414,4.1-1.1-.886a.716.716,0,1,0-.9,1.113l1.317,1.065a1.134,1.134,0,0,0,1.516-.067l.029-.028,3.648-4.384a.716.716,0,0,0-.092-1.008Z" transform="translate(-73.252 -126.424)" fill="#fff" stroke="#fff" stroke-width="0.5"/>
      <path id="Path_1116" data-name="Path 1116" d="M230.614,162.482H202.691a.716.716,0,0,0,0,1.431h27.924a.716.716,0,1,0,0-1.431Z" transform="translate(-167.317 -134.296)" fill="#fff" stroke="#fff" stroke-width="0.5"/>
      <path id="Path_1117" data-name="Path 1117" d="M230.614,212.193H202.691a.716.716,0,0,0,0,1.431h27.924a.716.716,0,1,0,0-1.431Z" transform="translate(-167.317 -178.078)" fill="#fff" stroke="#fff" stroke-width="0.5"/>
      <path id="Path_1118" data-name="Path 1118" d="M79.551,290.319a.716.716,0,0,0-.716.716v1.927H72.763V286.9H75.8a.716.716,0,0,0,0-1.431H72.375a1.044,1.044,0,0,0-1.043,1.042v6.84a1.044,1.044,0,0,0,1.043,1.043h6.849a1.044,1.044,0,0,0,1.043-1.043v-2.315A.716.716,0,0,0,79.551,290.319Z" transform="translate(-52.256 -242.613)" fill="#fff" stroke="#fff" stroke-width="0.5"/>
      <path id="Path_1119" data-name="Path 1119" d="M101.855,280.878a.716.716,0,0,0-1.008.092l-3.413,4.1-1.1-.886a.716.716,0,1,0-.9,1.113l1.317,1.065a1.135,1.135,0,0,0,1.516-.067l.029-.028,3.648-4.384A.716.716,0,0,0,101.855,280.878Z" transform="translate(-73.253 -238.425)" fill="#fff" stroke="#fff" stroke-width="0.5"/>
      <path id="Path_1120" data-name="Path 1120" d="M393.882,289.65h-5.814a.716.716,0,0,0,0,1.431h5.814a.716.716,0,1,0,0-1.431Z" transform="translate(-330.584 -246.297)" fill="#fff" stroke="#fff" stroke-width="0.5"/>
      <path id="Path_1121" data-name="Path 1121" d="M211.76,289.65h-9.069a.716.716,0,0,0,0,1.431h9.069a.716.716,0,1,0,0-1.431Z" transform="translate(-167.317 -246.297)" fill="#fff" stroke="#fff" stroke-width="0.5"/>
      <path id="Path_1122" data-name="Path 1122" d="M205.135,339.362h-2.444a.716.716,0,0,0,0,1.431h2.444a.716.716,0,1,0,0-1.431Z" transform="translate(-167.317 -290.079)" fill="#fff" stroke="#fff" stroke-width="0.5"/>
      <path id="Path_1123" data-name="Path 1123" d="M66.907,10H15.3A3.3,3.3,0,0,0,12,13.3v42.77a3.3,3.3,0,0,0,3.291,3.3l27.293.193,1.383,5.433c0,.01.005.019.008.029A5.107,5.107,0,0,0,48.9,68.68h9.978a5.146,5.146,0,0,0,5.139-5.14V59.52l2.915-.159a3.3,3.3,0,0,0,3.275-3.3V13.3a3.3,3.3,0,0,0-3.3-3.3ZM15.3,11.431H66.907A1.867,1.867,0,0,1,68.772,13.3v7.245H13.431V13.3A1.867,1.867,0,0,1,15.3,11.431ZM62.582,63.54a3.713,3.713,0,0,1-3.707,3.709H48.9a3.684,3.684,0,0,1-3.547-2.63l-1.515-5.953a25.367,25.367,0,0,0-1.424-4.091l-.117-.278a4.709,4.709,0,0,1,3.876,2.035L47.4,58.115v2.658a.716.716,0,1,0,1.431,0V41.323a1.346,1.346,0,0,1,2.692,0v12.7a.714.714,0,0,0,.031.206V57.15a.716.716,0,1,0,1.431,0v-4a1.067,1.067,0,1,1,2.135,0v.811a2.587,2.587,0,0,0-.028.377V57.15a.716.716,0,0,0,.716.716h.028a.716.716,0,0,0,.716-.716V54.092a1.148,1.148,0,0,1,2.27.249v3.551a.716.716,0,1,0,1.431,0v-2.43a1.164,1.164,0,1,1,2.328,0Zm4.325-5.609h-.039l-2.855.155V55.463a2.593,2.593,0,0,0-3.991-2.188,2.577,2.577,0,0,0-3.688-1.139,2.488,2.488,0,0,0-3.378-1.225V41.323a2.777,2.777,0,0,0-5.555,0V55.6l-.053-.076a6.14,6.14,0,0,0-5.054-2.653,1.436,1.436,0,0,0-1.311,2.023l.121.27A23.942,23.942,0,0,1,42.2,58.12L15.3,57.93a1.867,1.867,0,0,1-1.864-1.864V21.972H68.772V56.066a1.867,1.867,0,0,1-1.865,1.864Z" fill="#fff" stroke="#fff" stroke-width="0.5"/>
      <path id="Path_1124" data-name="Path 1124" d="M41.943,41.917A2.743,2.743,0,1,0,39.2,39.174,2.743,2.743,0,0,0,41.943,41.917Zm0-4.054a1.312,1.312,0,1,1-1.312,1.312A1.312,1.312,0,0,1,41.943,37.863Z" transform="translate(-23.956 -23.279)" fill="#fff" stroke="#fff" stroke-width="0.5"/>
      <path id="Path_1125" data-name="Path 1125" d="M102.576,41.917a2.743,2.743,0,1,0-2.743-2.743A2.743,2.743,0,0,0,102.576,41.917Zm0-4.054a1.312,1.312,0,1,1-1.312,1.312A1.312,1.312,0,0,1,102.576,37.863Z" transform="translate(-77.357 -23.279)" fill="#fff" stroke="#fff" stroke-width="0.5"/>
      <path id="Path_1126" data-name="Path 1126" d="M163.21,41.917a2.743,2.743,0,1,0-2.743-2.743A2.743,2.743,0,0,0,163.21,41.917Zm0-4.054a1.312,1.312,0,1,1-1.312,1.312A1.312,1.312,0,0,1,163.21,37.863Z" transform="translate(-130.76 -23.279)" fill="#fff" stroke="#fff" stroke-width="0.5"/>
      <path id="Path_1127" data-name="Path 1127" d="M267.716,53.731h23.249a.716.716,0,1,0,0-1.431H267.716a.716.716,0,1,0,0,1.431Z" transform="translate(-224.586 -37.255)" fill="#fff" stroke="#fff" stroke-width="0.5"/>
    </g>
  </g>
</svg>
