<svg xmlns="http://www.w3.org/2000/svg" width="154.811" height="136.818" viewBox="0 0 154.811 136.818">
  <g id="streess" transform="translate(-476.595 -933.111)">
    <path id="Path_98" data-name="Path 98" d="M78.787,113.368c35.993,0,51.554-26.95,51.554,9.043s-30.863,65.451-66.855,65.451S0,158.4,0,122.411,42.794,113.368,78.787,113.368Z" transform="matrix(0.875, -0.485, 0.485, 0.875, 426.33, 905.622)" fill="#fdf1d0" opacity="0.587"/>
    <g id="relaxed" transform="translate(423.355 954)">
      <path id="Path_86" data-name="Path 86" d="M212.68,221.608a12.526,12.526,0,0,0,14.564,0,1.328,1.328,0,1,0-1.543-2.162,9.871,9.871,0,0,1-11.479,0,1.328,1.328,0,1,0-1.543,2.162Z" transform="translate(-89.272 -180.388)" stroke="#707070" stroke-width="1"/>
      <path id="Path_87" data-name="Path 87" d="M199.525,146.731l.059-.052a1.328,1.328,0,0,0-1.756-1.992l-.06.053a2.657,2.657,0,0,1-3.461.033l-.12-.1a1.328,1.328,0,1,0-1.72,2.024l.12.1a5.327,5.327,0,0,0,6.937-.066Z" transform="translate(-72.711 -118.796)" stroke="#707070" stroke-width="1"/>
      <path id="Path_88" data-name="Path 88" d="M283.984,146.7a1.328,1.328,0,1,0-1.72-2.024l-.12.1a2.658,2.658,0,0,1-3.462-.034l-.059-.052a1.328,1.328,0,0,0-1.756,1.992l.058.052a5.327,5.327,0,0,0,6.938.066Z" transform="translate(-142.182 -118.796)" stroke="#707070" stroke-width="1"/>
      <path id="Path_89" data-name="Path 89" d="M104.974,436.779a1.328,1.328,0,0,0-1.328,1.328v10.8a1.328,1.328,0,1,0,2.656,0v-10.8A1.328,1.328,0,0,0,104.974,436.779Z" transform="translate(-0.001 -359.444)" stroke="#707070" stroke-width="1"/>
      <path id="Path_90" data-name="Path 90" d="M123.808,109.653v-3.744a18.579,18.579,0,0,0,13.766,0v3.744a1.328,1.328,0,0,0,.663,1.149l5.3,3.067a1.328,1.328,0,0,0,1.331-2.3l-4.634-2.684v-4.3a18.6,18.6,0,0,0,8.2-21.489,1.328,1.328,0,0,0-2.535.792,15.95,15.95,0,1,1-2.37-4.675,1.328,1.328,0,0,0,2.139-1.574,18.583,18.583,0,1,0-24.516,26.947v4.3l-10.546,6.107a14,14,0,0,0-6.961,12.075v3.587a1.328,1.328,0,0,0,2.656,0V127.07a11.332,11.332,0,0,1,5.636-9.777l11.208-6.49a1.328,1.328,0,0,0,.663-1.149Z" transform="translate(0 -57.657)" stroke="#707070" stroke-width="1"/>
      <path id="Path_91" data-name="Path 91" d="M356.087,320.412l-.964-.558a1.328,1.328,0,1,0-1.331,2.3l.963.558a11.331,11.331,0,0,1,5.636,9.777V352.54a1.328,1.328,0,1,0,2.656,0V332.487A14,14,0,0,0,356.087,320.412Z" transform="translate(-205.311 -263.074)" stroke="#707070" stroke-width="1"/>
      <path id="Path_92" data-name="Path 92" d="M192.065,349.978l-7.35-4.954v-7.053a3.79,3.79,0,0,0-1.558-3.057l-1.3-.943-.958-6.614a3.563,3.563,0,0,0-3.508-3.036,3.526,3.526,0,0,0-2.217.783,3.526,3.526,0,0,0-2.217-.783,3.563,3.563,0,0,0-3.508,3.036l-.958,6.614-1.3.943a3.79,3.79,0,0,0-1.558,3.057v7.053l-7.35,4.954a1.328,1.328,0,0,0,1.484,2.2l7.936-5.349a1.329,1.329,0,0,0,.586-1.1v-7.76a1.127,1.127,0,0,1,.463-.909l1.751-1.273a1.327,1.327,0,0,0,.534-.884l1.039-7.168a.889.889,0,0,1,1.768.127v20.2a1.107,1.107,0,0,1-.4.849l-7.661,6.43a1.328,1.328,0,1,0,1.708,2.034l7.661-6.43.016-.014.016.014,7.661,6.43a1.328,1.328,0,1,0,1.708-2.034l-7.661-6.43a1.106,1.106,0,0,1-.4-.849v-20.2a.889.889,0,0,1,1.768-.127l1.039,7.168a1.328,1.328,0,0,0,.534.884l1.751,1.273a1.126,1.126,0,0,1,.463.909v7.76a1.329,1.329,0,0,0,.586,1.1l7.936,5.349a1.328,1.328,0,0,0,1.484-2.2Z" transform="translate(-44.485 -266.898)" stroke="#707070" stroke-width="1"/>
      <path id="Path_93" data-name="Path 93" d="M176.831,9.773h20.133a4.886,4.886,0,0,0,0-9.773H176.831a4.886,4.886,0,0,0,0,9.773Zm0-7.117h20.133a2.23,2.23,0,0,1,0,4.461H176.831a2.23,2.23,0,0,1,0-4.461Z" transform="translate(-56.207)" stroke="#707070" stroke-width="1"/>
    </g>
  </g>
</svg>
