<svg xmlns="http://www.w3.org/2000/svg" width="154.811" height="136.818" viewBox="0 0 154.811 136.818">
  <g id="ticket" transform="translate(-473.594 -972.182)">
    <path id="Path_102" data-name="Path 102" d="M78.787,113.368c35.993,0,51.554-26.95,51.554,9.043s-30.863,65.451-66.855,65.451S0,158.4,0,122.411,42.794,113.368,78.787,113.368Z" transform="matrix(0.875, -0.485, 0.485, 0.875, 423.33, 944.692)" fill="#fdf1d0" opacity="0.587"/>
    <g id="ticket_1_" data-name="ticket (1)" transform="translate(502.426 1003.23)">
      <path id="Path_946" data-name="Path 946" d="M106.047,58.566a1.6,1.6,0,0,0,1.562-1.475V38.172a1.613,1.613,0,0,0-1.562-1.562h-4.166L100.059,24.2a1.5,1.5,0,0,0-1.736-1.3L74.806,26.37h-.087L5.989,36.7a1.6,1.6,0,0,0-1.3,1.475V57a1.6,1.6,0,0,0,1.475,1.562,6.856,6.856,0,0,1,0,13.711A1.6,1.6,0,0,0,4.6,73.752V92.584a1.613,1.613,0,0,0,1.562,1.562h99.8a1.613,1.613,0,0,0,1.562-1.562V73.839a1.6,1.6,0,0,0-1.475-1.562,6.856,6.856,0,0,1,0-13.711Zm-32.369-28.9.607,4.079a1.491,1.491,0,0,0,1.475,1.3h.26a1.5,1.5,0,0,0,1.3-1.736l-.607-4.079L97.282,26.2l1.562,10.5H26.729Zm30.894,45.56V91.2H82.1V87.03a1.562,1.562,0,0,0-3.124,0V91.2H7.811V75.228a9.88,9.88,0,0,0,0-19.526V39.734H79.058v4.079a1.562,1.562,0,1,0,3.124,0V39.647h22.476V55.615A9.889,9.889,0,0,0,96.415,66.9,9.575,9.575,0,0,0,104.572,75.228Z" transform="translate(-4.6 -22.889)"/>
      <path id="Path_947" data-name="Path 947" d="M91.862,74.6A1.6,1.6,0,0,0,90.3,76.075V86.142a1.562,1.562,0,1,0,3.124,0v-9.98A1.556,1.556,0,0,0,91.862,74.6Z" transform="translate(-15.928 -29.725)"/>
      <path id="Path_948" data-name="Path 948" d="M91.862,54.2A1.6,1.6,0,0,0,90.3,55.675V65.742a1.562,1.562,0,1,0,3.124,0V55.675A1.54,1.54,0,0,0,91.862,54.2Z" transform="translate(-15.928 -27.028)"/>
      <path id="Path_949" data-name="Path 949" d="M27.062,56.537H45.894a1.556,1.556,0,0,0,1.562-1.562A1.484,1.484,0,0,0,45.894,53.5H27.062A1.556,1.556,0,0,0,25.5,55.062,1.484,1.484,0,0,0,27.062,56.537Z" transform="translate(-7.363 -26.936)"/>
      <path id="Path_950" data-name="Path 950" d="M64.725,64.6H27.062a1.562,1.562,0,1,0,0,3.124H64.725a1.562,1.562,0,0,0,0-3.124Z" transform="translate(-7.363 -28.403)"/>
      <path id="Path_951" data-name="Path 951" d="M64.725,75.7H27.062a1.562,1.562,0,1,0,0,3.124H64.725a1.562,1.562,0,0,0,0-3.124Z" transform="translate(-7.363 -29.87)"/>
      <path id="Path_952" data-name="Path 952" d="M64.725,86.8H27.062a1.562,1.562,0,0,0,0,3.124H64.725a1.562,1.562,0,0,0,0-3.124Z" transform="translate(-7.363 -31.337)"/>
    </g>
  </g>
</svg>
