<svg id="wallet" xmlns="http://www.w3.org/2000/svg" width="64.35" height="71.5" viewBox="0 0 64.35 71.5">
  <path id="Path_1087" data-name="Path 1087" d="M332.767,338.383A2.383,2.383,0,1,1,330.383,336,2.383,2.383,0,0,1,332.767,338.383Zm0,0" transform="translate(-279.142 -285.95)"/>
  <path id="Path_1088" data-name="Path 1088" d="M60.775,217.533H59.583v-5.958A3.579,3.579,0,0,0,56.008,208H3.575A3.579,3.579,0,0,0,0,211.575v33.367a3.579,3.579,0,0,0,3.575,3.575H56.008a3.579,3.579,0,0,0,3.575-3.575V236.6h1.192a3.579,3.579,0,0,0,3.575-3.575V221.108A3.579,3.579,0,0,0,60.775,217.533ZM57.2,244.942a1.193,1.193,0,0,1-1.192,1.192H3.575a1.193,1.193,0,0,1-1.192-1.192V211.575a1.193,1.193,0,0,1,1.192-1.192H56.008a1.193,1.193,0,0,1,1.192,1.192V222.3H47.667a3.579,3.579,0,0,0-3.575,3.575v7.15a3.579,3.579,0,0,0,3.575,3.575H57.2Zm4.767-11.917a1.193,1.193,0,0,1-1.192,1.192H47.667a1.193,1.193,0,0,1-1.192-1.192v-7.15a1.193,1.193,0,0,1,1.192-1.192h14.3ZM59.583,222.3v-2.383h1.192a1.193,1.193,0,0,1,1.192,1.192V222.3Zm0,0" transform="translate(0 -177.017)"/>
  <path id="Path_1089" data-name="Path 1089" d="M218.383,9.438a8.348,8.348,0,0,0,7.055-7.055h4.956a8.348,8.348,0,0,0,7.055,7.055V28.6h2.383V3.575A3.579,3.579,0,0,0,236.258,0H219.575A3.579,3.579,0,0,0,216,3.575V28.6h2.383Zm17.875-7.055a1.193,1.193,0,0,1,1.192,1.192V7.03A5.976,5.976,0,0,1,232.8,2.383ZM218.383,3.575a1.193,1.193,0,0,1,1.192-1.192h3.455a5.976,5.976,0,0,1-4.647,4.647Zm0,0" transform="translate(-183.825)"/>
  <path id="Path_1090" data-name="Path 1090" d="M248,87.15A7.15,7.15,0,1,0,255.15,80,7.15,7.15,0,0,0,248,87.15Zm11.917,0a4.767,4.767,0,1,1-4.767-4.767A4.767,4.767,0,0,1,259.917,87.15Zm0,0" transform="translate(-211.058 -68.083)"/>
  <path id="Path_1091" data-name="Path 1091" d="M122.383,57.438a8.348,8.348,0,0,0,7.055-7.055h2.478V48h-8.342A3.579,3.579,0,0,0,120,51.575V69.45h2.383Zm0-5.863a1.193,1.193,0,0,1,1.192-1.192h3.455a5.976,5.976,0,0,1-4.647,4.647Zm0,0" transform="translate(-102.125 -40.85)"/>
  <path id="Path_1092" data-name="Path 1092" d="M26.383,105.438a8.348,8.348,0,0,0,7.055-7.055h2.478V96H27.575A3.579,3.579,0,0,0,24,99.575V110.3h2.383Zm0-5.863a1.193,1.193,0,0,1,1.192-1.192H31.03a5.976,5.976,0,0,1-4.647,4.647Zm0,0" transform="translate(-20.425 -81.7)"/>
  <path id="Path_1093" data-name="Path 1093" d="M152,151.15h2.383a4.772,4.772,0,0,1,4.767-4.767V144A7.158,7.158,0,0,0,152,151.15Zm0,0" transform="translate(-129.358 -122.55)"/>
</svg>
