<svg xmlns="http://www.w3.org/2000/svg" width="212.344" height="222.18" viewBox="0 0 212.344 222.18">
  <g id="Group_2675" data-name="Group 2675" transform="translate(-884.657 -159.82)">
    <path id="Path_1306" data-name="Path 1306" d="M505.412,127.784V81.2h-3.163l-9-7.8L484.2,81.2h-3.113v62.866h-45.75v61.7h81.807V127.784Zm-3.163-8.969h-18v-1.705h18Zm0-3.4h-18v-1.7h18Zm0-3.4h-18v-1.7h18Zm0-3.4h-18v-1.7h18Zm0-3.4h-18v-1.705h18Zm0-3.4h-18v-1.705h18Zm0-3.4h-18v-1.7h18Zm0-3.4h-18v-1.7h18Zm0-3.4h-18v-1.7h18Zm0-3.4h-18V86.505h18Zm0-3.4h-18v-1.7h18Z" transform="translate(534.883 175.932)" fill="#f4f4f4" opacity="0.6"/>
    <g id="Group_2674" data-name="Group 2674">
      <path id="Path_1308" data-name="Path 1308" d="M613.234,155.089v61.9H592.655V106.118H550.708V191.3h-4.922V140.591H538.2l-21.156-10.353v10.353h-4.627V203.21H502.141v-84.8H491.752V88.656h-1.417v29.751H479.946V263.656H640.473V155.089ZM499.641,172.9H482.5V171.06h17.144Zm0-4.265H482.5V166.8h17.144Zm0-4.271H482.5v-1.841h17.144Zm0-4.264H482.5v-1.841h17.144Zm0-4.265H482.5V154h17.144Zm0-4.27H482.5v-1.842h17.144Zm0-4.265H482.5v-1.841h17.144Zm0-4.265H482.5V141.2h17.144Zm0-4.27H482.5v-1.842h17.144Zm0-4.265H482.5v-1.841h17.144Zm0-4.265H482.5V128.4h17.144Zm0-4.27H482.5v-1.841h17.144Zm0-4.265H482.5v-1.847h17.144Zm60.1,25.4h-5.1v-4.728h5.1Zm0-7.881h-5.1v-4.728h5.1Zm0-7.882h-5.1v-4.728h5.1Zm0-7.881h-5.1v-4.728h5.1Zm0-7.881h-5.1V110.84h5.1Zm9.69,31.526H564.34v-4.728h5.095Zm0-7.881H564.34v-4.728h5.095Zm0-7.882H564.34v-4.728h5.095Zm0-7.881H564.34v-4.728h5.095Zm0-7.881H564.34V110.84h5.095Zm9.7,31.526h-5.108v-4.728h5.108Zm0-7.881h-5.108v-4.728h5.108Zm0-7.882h-5.108v-4.728h5.108Zm0-7.881h-5.108v-4.728h5.108Zm0-7.881h-5.108V110.84h5.108Zm9.691,31.526h-5.1v-4.728h5.1Zm0-7.881h-5.1v-4.728h5.1Zm0-7.882h-5.1v-4.728h5.1Zm0-7.881h-5.1v-4.728h5.1Z" transform="translate(456.527 118.344)" fill="#f4f4f4" opacity="0.41"/>
      <g id="Group_2469" data-name="Group 2469" transform="translate(824.657 78.07)">
        <path id="Path_1390" data-name="Path 1390" d="M80.254,428.758c.3,2.556,2.174,4.645,4.192,6.242,8.907,7.046,21.167,7.548,32.523,7.742l42.206.721c4.84.082,9.685.165,14.519-.1,6.1-.335,12.494-1.359,17.267-5.171s7.158-11.189,3.719-16.237c-2.8-4.106-8.217-5.357-13.148-5.967-23.749-2.937-47.741,1.46-71.67,1.736C102.943,417.8,78.878,417.03,80.254,428.758Z" transform="translate(-8.742 -144.237)" fill="#9cacbf"/>
        <g id="Group_2468" data-name="Group 2468" transform="translate(60 81.75)">
          <path id="Path_1391" data-name="Path 1391" d="M113.368,258.5s-2.5,1.938-3.45,1.938-3.356.378-3.025,1.465,2.859.78,2.859.78l9.287-.106a12.757,12.757,0,0,0-.945-2.659C117.551,258.961,113.368,258.5,113.368,258.5Z" transform="translate(-80.284 -158.255)" fill="#e17865"/>
          <path id="Path_1392" data-name="Path 1392" d="M156.4,198.283a39.307,39.307,0,0,1-12.631-1.333,12.658,12.658,0,0,1-1.571-.794s.652-5.552.834-7.895a8.684,8.684,0,0,0,.4-2.03,121.9,121.9,0,0,0-2.467-15.886c-.318-1.39-.675-2.824-1.078-4.293.21,6.641-2.133,11.916-4.639,16.215a31.243,31.243,0,0,0-3.136,7.538,53.887,53.887,0,0,1-2.53,7.158c-2.615,6.086-6.522,13.232-6.522,13.232l-4.724-1.418s2.019-8.853,4.441-16.164a41.546,41.546,0,0,1,1.906-4.628,19.1,19.1,0,0,0,1.877-7.736c.13-6.551,2.518-14.292,4.254-18.926,1.321-14.933,8.32-14.933,12.194-15.6a17.816,17.816,0,0,1,2.694-1.055,31.193,31.193,0,0,1,3.25-.828c.136-.028.272-.051.414-.074.533-.1.856-.147.856-.147v.023h.006Z" transform="translate(-85.249 -108.53)" fill="#e17865"/>
          <path id="Path_1393" data-name="Path 1393" d="M252.159,258.5s2.505,1.938,3.45,1.938,3.356.378,3.025,1.465-2.86.78-2.86.78l-9.287-.106a12.737,12.737,0,0,1,.945-2.659C247.976,258.961,252.159,258.5,252.159,258.5Z" transform="translate(-140.72 -158.255)" fill="#e17865"/>
          <path id="Path_1394" data-name="Path 1394" d="M227.431,208.775l-4.724,1.418s-3.908-7.146-6.522-13.232a53.891,53.891,0,0,1-2.53-7.158,31.242,31.242,0,0,0-3.136-7.538c-2.5-4.3-4.844-9.574-4.639-16.215-.391,1.418-.737,2.813-1.044,4.163a122.535,122.535,0,0,0-2.5,16.017,17.314,17.314,0,0,0,.845,3.6v.006c.425,2.592,1.1,6.176,1.1,6.176a22.962,22.962,0,0,1-2.178.9,39.366,39.366,0,0,1-12.738,1.367l6.188-54.657v-.006l.108.017a.446.446,0,0,1,.079.011,32.853,32.853,0,0,1,4.486,1.066,18.891,18.891,0,0,1,2.535,1.01c3.879.664,10.872.664,12.194,15.6,1.741,4.634,4.129,12.375,4.254,18.926a19.1,19.1,0,0,0,1.877,7.736,41.552,41.552,0,0,1,1.906,4.628C225.412,199.922,227.431,208.775,227.431,208.775Z" transform="translate(-115.994 -108.53)" fill="#e17865"/>
          <path id="Path_1395" data-name="Path 1395" d="M189.149,189.727a5.078,5.078,0,0,0-.2-1.738,13.914,13.914,0,0,1-.571-1.711c-.246-1.378.576-2.478,1.047-3.664.368-.928-.211-1.977-.085-2.94.139-1.063.35-2.153.492-3.23.269-2.047.527-4.106.92-6.134-.074-.068.9-4.3.828-4.373-4.946-5.15-5.7-19.368-5.655-21.336.006-.113.006-.17.006-.17a38.184,38.184,0,0,0-4.492-.9.442.442,0,0,0-.079-.011.692.692,0,0,0-.108-.011,15.58,15.58,0,0,0-2.518-.147c-2.9.108-4.679.25-4.679.25l-.067,3.715.033-3.715s-1.775-.142-4.679-.244a16.954,16.954,0,0,0-2.677.159c-.289.04-.578.079-.856.125-.142.023-.278.045-.414.074-1.792.306-3.25.7-3.25.7v.125c.045,1.724-.692,16.379-5.813,21.382-.028.023,1.163,4.791,1.134,4.819.378,1.963.62,3.956.87,5.939.147,1.159.359,2.338.424,3.505a9.4,9.4,0,0,1-.016,3.176c-.282.962-.92,1.893-.728,2.877a4.909,4.909,0,0,0,.53,1.224,8.343,8.343,0,0,1,.5,4.991c-.024.221-.335,3.574-.4,3.574a12.653,12.653,0,0,0,1.571.794,23.935,23.935,0,0,0,12.846,2.514s11.808-1.482,14.74-2.548a22.957,22.957,0,0,0,2.178-.9q-.305-1.625-.595-3.253a9.841,9.841,0,0,1-.267-2.3C189.132,190.138,189.143,189.931,189.149,189.727Z" transform="translate(-101.697 -108.417)"/>
          <path id="Path_1396" data-name="Path 1396" d="M213.931,298.925s1.691,16.458,2.457,18.8c2.072,5.044,6.918,16.908,7.174,43.993.285,3.963-3.886,3.867-4.8,1.688s-9.916-19.848-10.69-25.183c-.542-3.735-1.59-7.621-1.717-10.647a22.08,22.08,0,0,0-1.975-8.465c-2.338-5.013-5.626-12.311-6.382-15.275C201.948,300.529,207.643,297.786,213.931,298.925Z" transform="translate(-119.731 -175.639)" fill="#e17865"/>
          <g id="Group_2460" data-name="Group 2460" transform="translate(96.746 181.49)">
            <path id="Path_1397" data-name="Path 1397" d="M237.916,401.75c.12.613,2.306,12.652,3.468,15.99s-7.338,2.2-7.338,2.2a54.4,54.4,0,0,0-1.355-11.134c-.218-1.1-1.391-4.883-1.391-4.883s2.525-.3,3.6-.508A6.087,6.087,0,0,0,237.916,401.75Z" transform="translate(-230.892 -401.75)" fill="#354687"/>
            <path id="Path_1398" data-name="Path 1398" d="M245.709,432.422c-3-1.883-2.984-2.643-3.335-5.416s-.1-6.428-2.13-6.1c-2.739.448-3.849,1.1-4.384,3.845-.691,3.542-1.669-.006-1.669-.006s-.288-.85-.682-.5-1.767,4.912-2.047,7.775-2.24,4.385.8,6.052,14.089,1.012,15.189-.806S246.8,433.107,245.709,432.422Z" transform="translate(-230.581 -410.034)" fill="#5764a1"/>
            <path id="Path_1399" data-name="Path 1399" d="M232.261,448.425c-2.051-1.124-1.825-2.184-1.375-3.634,8.557,4.551,15.448,1.479,16.808.779a2.609,2.609,0,0,1-.244,2.049C246.351,449.437,235.3,450.091,232.261,448.425Z" transform="translate(-230.582 -420.38)" fill="#fff" style="isolation: isolate"/>
            <path id="Path_1400" data-name="Path 1400" d="M248.931,440.114a6.78,6.78,0,0,0-6.356.613" transform="translate(-235.773 -418.13)" fill="none" stroke="#090909" stroke-miterlimit="10" stroke-width="0.942"/>
            <path id="Path_1401" data-name="Path 1401" d="M248.3,438.46c-.028-.116-.178-.145-.3-.151l-.9-.039a10.5,10.5,0,0,0-2.294.066,3.533,3.533,0,0,0-2.017,1.015" transform="translate(-235.868 -417.544)" fill="none" stroke="#090909" stroke-miterlimit="10" stroke-width="0.942"/>
            <path id="Path_1402" data-name="Path 1402" d="M247.73,436.679a7.262,7.262,0,0,0-5.482.939" transform="translate(-235.631 -416.79)" fill="none" stroke="#090909" stroke-miterlimit="10" stroke-width="0.942"/>
            <path id="Path_1403" data-name="Path 1403" d="M246.477,434.763a6.769,6.769,0,0,0-5.217,1.192" transform="translate(-235.204 -415.99)" fill="none" stroke="#090909" stroke-miterlimit="10" stroke-width="0.942"/>
            <path id="Path_1404" data-name="Path 1404" d="M243.257,434.1a.353.353,0,0,1,.506.217.31.31,0,0,1-.411.31.4.4,0,0,1-.186-.529.58.58,0,0,1,.509-.309c.242-.008.513.155.516.4s-.406.375-.486.147a7.184,7.184,0,0,1,4.258.633c.254.124.532.442.328.637a.409.409,0,0,1-.157.083,3.37,3.37,0,0,1-2.3-.193c-.73-.29-1.4-.709-2.129-1.008a7.073,7.073,0,0,0-2.77-.53,3.83,3.83,0,0,0-2.914,1.141,1.123,1.123,0,0,0-.319.884c.1.536.744.763,1.288.787a4.535,4.535,0,0,0,2.876-.882c.626-.465,1.122-1.086,1.738-1.565" transform="translate(-233.659 -415.616)" fill="none" stroke="#090909" stroke-miterlimit="10" stroke-width="0.942"/>
            <path id="Path_1405" data-name="Path 1405" d="M248.3,434.673a2.107,2.107,0,0,0,.1.94,7.877,7.877,0,0,0,.8,1.993,3.972,3.972,0,0,0,1.511,1.5" transform="translate(-238.24 -416.001)" fill="none" stroke="#090909" stroke-miterlimit="10" stroke-width="0.942"/>
            <path id="Path_1406" data-name="Path 1406" d="M245.228,434.884a13.876,13.876,0,0,1-1.04,2.849,4.667,4.667,0,0,1-2.115,2.106" transform="translate(-235.555 -416.092)" fill="none" stroke="#090909" stroke-miterlimit="10" stroke-width="0.942"/>
            <path id="Path_1407" data-name="Path 1407" d="M234.771,437.076a.983.983,0,0,1,.167.827.918.918,0,0,1-.7.453,3.81,3.81,0,0,1-.948.084.519.519,0,0,1-.251-.055.447.447,0,0,1-.18-.362,2.471,2.471,0,0,1,.221-.974c.189-.546.129-1.728.459-2.115C233.952,435.632,234.365,436.364,234.771,437.076Z" transform="translate(-231.565 -416.113)" fill="#fff" style="isolation: isolate"/>
          </g>
          <path id="Path_1408" data-name="Path 1408" d="M143.151,298.925s-1.691,16.458-2.456,18.8c-2.072,5.044-6.919,16.908-7.175,43.993-.285,3.963,3.887,3.867,4.8,1.688s9.916-19.848,10.69-25.183c.542-3.735,1.59-7.621,1.717-10.647a22.08,22.08,0,0,1,1.975-8.465c2.338-5.013,5.626-12.311,6.382-15.275C155.134,300.529,149.439,297.786,143.151,298.925Z" transform="translate(-91.817 -175.639)" fill="#e17865"/>
          <g id="Group_2461" data-name="Group 2461" transform="translate(31.57 181.49)">
            <path id="Path_1409" data-name="Path 1409" d="M130.907,401.75c-.12.613-2.305,12.652-3.468,15.99s7.338,2.2,7.338,2.2a54.4,54.4,0,0,1,1.355-11.134c.218-1.1,1.391-4.883,1.391-4.883s-2.525-.3-3.6-.508A6.083,6.083,0,0,1,130.907,401.75Z" transform="translate(-120.713 -401.75)" fill="#354687"/>
            <path id="Path_1410" data-name="Path 1410" d="M117.754,432.422c3-1.883,2.984-2.643,3.335-5.416s.1-6.428,2.13-6.1c2.739.448,3.849,1.1,4.385,3.845.691,3.542,1.669-.006,1.669-.006s.287-.85.682-.5,1.768,4.912,2.047,7.775,2.24,4.385-.8,6.052-14.09,1.012-15.19-.806S116.664,433.107,117.754,432.422Z" transform="translate(-115.664 -410.034)" fill="#5764a1"/>
            <path id="Path_1411" data-name="Path 1411" d="M131.205,448.425c2.051-1.124,1.824-2.184,1.375-3.634-8.558,4.551-15.448,1.479-16.808.779a2.609,2.609,0,0,0,.244,2.049C117.115,449.437,128.166,450.091,131.205,448.425Z" transform="translate(-115.666 -420.38)" fill="#fff" style="isolation: isolate"/>
            <path id="Path_1412" data-name="Path 1412" d="M122.821,440.114a6.781,6.781,0,0,1,6.357.613" transform="translate(-118.762 -418.13)" fill="none" stroke="#090909" stroke-miterlimit="10" stroke-width="0.942"/>
            <path id="Path_1413" data-name="Path 1413" d="M124.094,438.46c.028-.116.178-.145.3-.151l.9-.039a10.5,10.5,0,0,1,2.293.066,3.533,3.533,0,0,1,2.017,1.015" transform="translate(-119.313 -417.544)" fill="none" stroke="#090909" stroke-miterlimit="10" stroke-width="0.942"/>
            <path id="Path_1414" data-name="Path 1414" d="M124.69,436.679a7.263,7.263,0,0,1,5.482.939" transform="translate(-119.571 -416.79)" fill="none" stroke="#090909" stroke-miterlimit="10" stroke-width="0.942"/>
            <path id="Path_1415" data-name="Path 1415" d="M126.144,434.763a6.769,6.769,0,0,1,5.217,1.192" transform="translate(-120.2 -415.99)" fill="none" stroke="#090909" stroke-miterlimit="10" stroke-width="0.942"/>
            <path id="Path_1416" data-name="Path 1416" d="M125.2,434.1a.353.353,0,0,0-.506.217.309.309,0,0,0,.411.31.4.4,0,0,0,.185-.529.58.58,0,0,0-.509-.309c-.242-.008-.513.155-.516.4s.406.375.486.147a7.182,7.182,0,0,0-4.258.633c-.254.124-.533.442-.328.637a.413.413,0,0,0,.157.083,3.37,3.37,0,0,0,2.3-.193c.73-.29,1.4-.709,2.129-1.008a7.076,7.076,0,0,1,2.771-.53,3.829,3.829,0,0,1,2.913,1.141,1.119,1.119,0,0,1,.319.884c-.1.536-.744.763-1.288.787a4.535,4.535,0,0,1-2.876-.882c-.626-.465-1.122-1.086-1.738-1.565" transform="translate(-117.583 -415.616)" fill="none" stroke="#090909" stroke-miterlimit="10" stroke-width="0.942"/>
            <path id="Path_1417" data-name="Path 1417" d="M126.454,434.673a2.106,2.106,0,0,1-.1.94,7.9,7.9,0,0,1-.8,1.993,3.968,3.968,0,0,1-1.511,1.5" transform="translate(-119.292 -416.001)" fill="none" stroke="#090909" stroke-miterlimit="10" stroke-width="0.942"/>
            <path id="Path_1418" data-name="Path 1418" d="M128.968,434.884a13.875,13.875,0,0,0,1.04,2.849,4.67,4.67,0,0,0,2.115,2.106" transform="translate(-121.423 -416.092)" fill="none" stroke="#090909" stroke-miterlimit="10" stroke-width="0.942"/>
            <path id="Path_1419" data-name="Path 1419" d="M140.21,437.076a.983.983,0,0,0-.167.827.919.919,0,0,0,.7.453,3.812,3.812,0,0,0,.948.084.519.519,0,0,0,.251-.055.447.447,0,0,0,.18-.362,2.461,2.461,0,0,0-.221-.974c-.189-.546-.129-1.728-.459-2.115C141.029,435.632,140.615,436.364,140.21,437.076Z" transform="translate(-126.198 -416.113)" fill="#fff" style="isolation: isolate"/>
          </g>
          <path id="Path_1420" data-name="Path 1420" d="M185.924,235.5s-15.952,5.23-31.194.142c-2.055,4.837-6.239,23.4-7.515,43.387,5.53,4.4,7.657,3.4,16.731,3.97,1.7-4.821,5.388-18.291,5.672-19.283a5.5,5.5,0,0,0,2.02.035s4.573,16.7,6.062,19.035c1.843-.071,13.612-2.765,16.093-4.75C194.006,275.839,189.895,249.4,185.924,235.5Z" transform="translate(-97.751 -148.3)" fill="#5764a1"/>
          <path id="Path_1421" data-name="Path 1421" d="M213.6,237.419a53.575,53.575,0,0,1,2.477,9.508c1.844,9.482,4.1,21.845,5.69,31.373" transform="translate(-126.485 -149.13)" fill="none" stroke="#fff" stroke-miterlimit="10" stroke-width="1"/>
          <path id="Path_1422" data-name="Path 1422" d="M157.128,238.749c-.294,1.06-.521,2.136-.748,3.212l-1.369,6.489-1.439,6.821c-1.763,8.357-3.533,16.77-3.769,25.308" transform="translate(-98.871 -149.706)" fill="none" stroke="#fff" stroke-miterlimit="10" stroke-width="1"/>
          <path id="Path_1423" data-name="Path 1423" d="M192.732,145.812a6.556,6.556,0,0,1-2.587,2.659,10.22,10.22,0,0,1-9.429,0" transform="translate(-112.251 -109.479)" fill="none" stroke="#fff" stroke-miterlimit="10" stroke-width="0.706"/>
          <path id="Path_1424" data-name="Path 1424" d="M177.429,148.278a4.241,4.241,0,0,1-1.658-1.61" transform="translate(-110.111 -109.849)" fill="none" stroke="#fff" stroke-miterlimit="10" stroke-width="0.706"/>
          <g id="Group_2462" data-name="Group 2462" transform="translate(64.97 23.061)">
            <path id="Path_1425" data-name="Path 1425" d="M190.048,134.621a7.368,7.368,0,0,1-5.036,4.067c-6.9,1.021-9.432-2.66-10.458-4.248a4.817,4.817,0,0,1,.527-.17c1.236-.391,1.809-2.49,1.951-3.97a33.2,33.2,0,0,0,.108-3.409,26.614,26.614,0,0,0-.374-4.481l9.506,3.369c.068.454.119.941.17,1.441.017.227.04.459.057.692.028.448.057.89.079,1.321.017.414.028.805.04,1.174a7.385,7.385,0,0,0,.312,2.019,2.827,2.827,0,0,0,.981,1.452,4,4,0,0,0,1.492.635C189.424,134.519,190.042,134.638,190.048,134.621Z" transform="translate(-174.553 -122.41)" fill="#e17865"/>
          </g>
          <rect id="Rectangle_1614" data-name="Rectangle 1614" width="144.389" height="3.45" rx="1.725" transform="translate(0 103.648)" fill="#efc837"/>
          <g id="Group_2463" data-name="Group 2463" transform="translate(29.131 103.978)">
            <path id="Path_1426" data-name="Path 1426" d="M114.3,270.5c-.027.027-.07.01-.09.034-.072.09-.157.191-.233.286a1.123,1.123,0,0,1-.648.447,1.277,1.277,0,0,1-.305.009,2.333,2.333,0,0,1-.457-.066,1.532,1.532,0,0,1-1.029-.888,4.612,4.612,0,0,1-.074-.844c-.033-.434-.059-.869-.075-1.3a8.147,8.147,0,0,1,.141-2.493c.3-1.05,1.48.106,1.765.531a6.086,6.086,0,0,1,.869,2.33,10.119,10.119,0,0,1,.147,1.7C114.314,270.294,114.341,270.437,114.3,270.5Z" transform="translate(-111.363 -265.154)" fill="#e17865"/>
            <path id="Path_1427" data-name="Path 1427" d="M120.567,265.92s1.095-.235,1.262.032a4.794,4.794,0,0,1,.841,2.385,3.616,3.616,0,0,1-.414,1.825c-.114.211-.3.435-.537.415-.091-.007-.19-.05-.269,0a.325.325,0,0,0-.091.11,1.493,1.493,0,0,1-1.059.564,2.977,2.977,0,0,1-1.311-.065,2.416,2.416,0,0,0-.324-.125c-.155-.02-.052-.039-.155.066-.125.128-.184.252-.362.328a1.3,1.3,0,0,1-.6.08,2.42,2.42,0,0,1-.827-.209c-.178-.081-.5-.4-.674-.4-.039-.2-.091-.4-.137-.6a2.272,2.272,0,0,1-.129-.554l.12-1.955.241-1.189c.117-.2.268-.416.4-.607a1.022,1.022,0,0,1,.533-.426.549.549,0,0,1,.614.2c.094.156.084.362.19.51a2.245,2.245,0,0,1,.974-.844.728.728,0,0,1,.316-.079.593.593,0,0,1,.464.307,1.735,1.735,0,0,1,.183.548c.042.2.026.345.074.539" transform="translate(-113.274 -265.216)" fill="#e17865"/>
            <path id="Path_1428" data-name="Path 1428" d="M116.047,270.953a8.785,8.785,0,0,1,.105-4.348,1.574,1.574,0,0,1,.514-.774,1.154,1.154,0,0,1,.619-.428.281.281,0,0,1,.158.014.375.375,0,0,1,.123.108c.067.081.134.161.193.247a1.654,1.654,0,0,1,.218,1.389" transform="translate(-113.287 -265.219)" fill="none" stroke="#934735" stroke-miterlimit="10" stroke-width="0.5"/>
            <path id="Path_1429" data-name="Path 1429" d="M119.586,268.353a6.239,6.239,0,0,0,.6,3.589" transform="translate(-114.894 -266.498)" fill="none" stroke="#934735" stroke-miterlimit="10" stroke-width="0.5"/>
            <path id="Path_1430" data-name="Path 1430" d="M123.317,270.274c-.064.124-.538-.011-.655-.086a1.6,1.6,0,0,1-.407-.47,7.434,7.434,0,0,1-.589-3.3,2.545,2.545,0,0,0-.341-1.088.468.468,0,0,0-.12-.166.432.432,0,0,0-.222-.071,1.163,1.163,0,0,0-.684.127.832.832,0,0,0-.415.545c-.012.061-.017.125-.034.185a.555.555,0,0,0-.052.213" transform="translate(-115.013 -265.082)" fill="none" stroke="#934735" stroke-miterlimit="10" stroke-width="0.5"/>
            <path id="Path_1431" data-name="Path 1431" d="M125.667,267.484c-.577-1.533-1.368-1.291-1.775-1.221a.593.593,0,0,0-.411.4,1.554,1.554,0,0,0-.085.59" transform="translate(-116.571 -265.568)" fill="none" stroke="#934735" stroke-miterlimit="10" stroke-width="0.5"/>
            <path id="Path_1432" data-name="Path 1432" d="M114.074,267.812a5.15,5.15,0,0,0-.525-1.332,2.309,2.309,0,0,0-1.042-.955.64.64,0,0,0-.661.024.768.768,0,0,0-.178.576l-.034,1.244" transform="translate(-111.481 -265.24)" fill="none" stroke="#934735" stroke-miterlimit="10" stroke-width="0.5"/>
          </g>
          <g id="Group_2464" data-name="Group 2464" transform="translate(120.19 85.712)">
            <rect id="Rectangle_1615" data-name="Rectangle 1615" width="4.75" height="39.134" rx="2.375" transform="translate(4.75 39.134) rotate(180)"/>
            <rect id="Rectangle_1616" data-name="Rectangle 1616" width="4.75" height="31.335" rx="2.375" transform="translate(9.701 35.235) rotate(180)"/>
            <rect id="Rectangle_1617" data-name="Rectangle 1617" width="4.75" height="20.134" rx="2.375" transform="translate(14.652 29.634) rotate(180)"/>
            <path id="Path_1433" data-name="Path 1433" d="M272.957,269.634V235.25a2.373,2.373,0,0,1,1.855-2.314,2.347,2.347,0,0,0-.52-.061,2.375,2.375,0,0,0-2.375,2.375v34.384a2.375,2.375,0,0,0,2.375,2.375,2.349,2.349,0,0,0,.52-.061A2.373,2.373,0,0,1,272.957,269.634Z" transform="translate(-271.917 -232.875)" fill="#a6a09f" opacity="0.45"/>
            <path id="Path_1434" data-name="Path 1434" d="M281.686,268.711V242.125a2.374,2.374,0,0,1,1.855-2.314,2.347,2.347,0,0,0-.52-.061,2.375,2.375,0,0,0-2.375,2.375v26.585a2.375,2.375,0,0,0,2.375,2.375,2.349,2.349,0,0,0,.52-.061A2.373,2.373,0,0,1,281.686,268.711Z" transform="translate(-275.695 -235.851)" fill="#a6a09f" opacity="0.45"/>
            <path id="Path_1435" data-name="Path 1435" d="M290.415,267.384V252a2.373,2.373,0,0,1,1.855-2.314,2.344,2.344,0,0,0-.52-.061A2.375,2.375,0,0,0,289.375,252v15.384a2.361,2.361,0,0,0,2.895,2.314A2.373,2.373,0,0,1,290.415,267.384Z" transform="translate(-279.473 -240.125)" fill="#a6a09f" opacity="0.45"/>
          </g>
          <g id="Group_2465" data-name="Group 2465" transform="translate(9.453 85.712)">
            <rect id="Rectangle_1618" data-name="Rectangle 1618" width="4.75" height="39.134" rx="2.375" transform="translate(9.902 0)"/>
            <rect id="Rectangle_1619" data-name="Rectangle 1619" width="4.75" height="31.335" rx="2.375" transform="translate(4.951 3.899)"/>
            <rect id="Rectangle_1620" data-name="Rectangle 1620" width="4.75" height="20.134" rx="2.375" transform="translate(0 9.5)"/>
            <path id="Path_1436" data-name="Path 1436" d="M99.251,269.634V235.25a2.374,2.374,0,0,0-1.855-2.314,2.347,2.347,0,0,1,.52-.061,2.375,2.375,0,0,1,2.375,2.375v34.384a2.375,2.375,0,0,1-2.375,2.375,2.348,2.348,0,0,1-.52-.061A2.373,2.373,0,0,0,99.251,269.634Z" transform="translate(-85.639 -232.875)" fill="#a6a09f" opacity="0.45"/>
            <path id="Path_1437" data-name="Path 1437" d="M90.522,268.711V242.125a2.374,2.374,0,0,0-1.855-2.314,2.338,2.338,0,0,1,.52-.061,2.375,2.375,0,0,1,2.375,2.375v26.585a2.375,2.375,0,0,1-2.375,2.375,2.34,2.34,0,0,1-.52-.061A2.373,2.373,0,0,0,90.522,268.711Z" transform="translate(-81.861 -235.851)" fill="#a6a09f" opacity="0.45"/>
            <path id="Path_1438" data-name="Path 1438" d="M81.792,267.384V252a2.373,2.373,0,0,0-1.855-2.313,2.346,2.346,0,0,1,.52-.061A2.375,2.375,0,0,1,82.832,252v15.384a2.361,2.361,0,0,1-2.9,2.314A2.373,2.373,0,0,0,81.792,267.384Z" transform="translate(-78.082 -240.125)" fill="#a6a09f" opacity="0.45"/>
          </g>
          <g id="Group_2466" data-name="Group 2466" transform="translate(105.994 103.978)">
            <path id="Path_1439" data-name="Path 1439" d="M258.26,270.5c.027.027.07.01.09.034.071.09.156.191.233.286a1.121,1.121,0,0,0,.648.447,1.277,1.277,0,0,0,.305.009,2.345,2.345,0,0,0,.457-.066,1.532,1.532,0,0,0,1.029-.888,4.666,4.666,0,0,0,.074-.844c.033-.434.059-.869.074-1.3a8.125,8.125,0,0,0-.141-2.493c-.3-1.05-1.479.106-1.764.531a6.067,6.067,0,0,0-.869,2.33,10,10,0,0,0-.147,1.7C258.247,270.294,258.221,270.437,258.26,270.5Z" transform="translate(-251.8 -265.154)" fill="#e17865"/>
            <path id="Path_1440" data-name="Path 1440" d="M248.991,265.92s-1.094-.235-1.262.032a4.8,4.8,0,0,0-.841,2.385,3.616,3.616,0,0,0,.414,1.825c.114.211.3.435.537.415.091-.007.191-.05.269,0a.325.325,0,0,1,.091.11,1.493,1.493,0,0,0,1.059.564,2.974,2.974,0,0,0,1.311-.065,2.426,2.426,0,0,1,.324-.125c.154-.02.052-.039.155.066.125.128.184.252.362.328a1.3,1.3,0,0,0,.6.08,2.42,2.42,0,0,0,.828-.209c.178-.081.5-.4.673-.4.039-.2.091-.4.138-.6a2.274,2.274,0,0,0,.129-.554l-.121-1.955-.241-1.189c-.117-.2-.267-.416-.4-.607a1.02,1.02,0,0,0-.533-.426.549.549,0,0,0-.614.2c-.094.156-.083.362-.19.51a2.241,2.241,0,0,0-.974-.844.728.728,0,0,0-.316-.079.593.593,0,0,0-.464.307,1.749,1.749,0,0,0-.183.548c-.041.2-.025.345-.074.539" transform="translate(-246.887 -265.216)" fill="#e17865"/>
            <path id="Path_1441" data-name="Path 1441" d="M257.066,270.953a8.778,8.778,0,0,0-.105-4.348,1.57,1.57,0,0,0-.514-.774,1.152,1.152,0,0,0-.619-.428.283.283,0,0,0-.158.014.374.374,0,0,0-.123.108c-.067.081-.134.161-.194.247a1.656,1.656,0,0,0-.218,1.389" transform="translate(-250.428 -265.219)" fill="none" stroke="#934735" stroke-miterlimit="10" stroke-width="0.5"/>
            <path id="Path_1442" data-name="Path 1442" d="M254.729,268.353a6.235,6.235,0,0,1-.6,3.589" transform="translate(-250.023 -266.498)" fill="none" stroke="#934735" stroke-miterlimit="10" stroke-width="0.5"/>
            <path id="Path_1443" data-name="Path 1443" d="M248.815,270.274c.064.124.538-.011.656-.086a1.6,1.6,0,0,0,.407-.47,7.443,7.443,0,0,0,.589-3.3,2.536,2.536,0,0,1,.341-1.088.47.47,0,0,1,.121-.166.432.432,0,0,1,.222-.071,1.165,1.165,0,0,1,.685.127.833.833,0,0,1,.415.545c.012.061.016.125.034.185a.575.575,0,0,1,.052.213" transform="translate(-247.722 -265.082)" fill="none" stroke="#934735" stroke-miterlimit="10" stroke-width="0.5"/>
            <path id="Path_1444" data-name="Path 1444" d="M247.418,267.484c.577-1.533,1.369-1.291,1.775-1.221a.593.593,0,0,1,.411.4,1.533,1.533,0,0,1,.085.59" transform="translate(-247.117 -265.568)" fill="none" stroke="#934735" stroke-miterlimit="10" stroke-width="0.5"/>
            <path id="Path_1445" data-name="Path 1445" d="M258.885,267.812a5.126,5.126,0,0,1,.525-1.332,2.312,2.312,0,0,1,1.042-.955.64.64,0,0,1,.661.024.768.768,0,0,1,.179.576q.017.623.034,1.244" transform="translate(-252.08 -265.24)" fill="none" stroke="#934735" stroke-miterlimit="10" stroke-width="0.5"/>
          </g>
          <path id="Path_1446" data-name="Path 1446" d="M172.2,105.221s-2.174-2.174-3.025.189a3.463,3.463,0,0,0,2.647,4.537s2.457,7.184,7.278,7.562c2.552.095,5.483,0,8.318-6.995,1.434-.448,4.4-3.021,2.525-5.3a1.331,1.331,0,0,0-1.142-.505,1.3,1.3,0,0,0-1.006.7,22.628,22.628,0,0,1,.3-4.378,3.808,3.808,0,0,0-3.88-4.39l-9.874.343a2.649,2.649,0,0,0-2.55,2.848Z" transform="translate(-107.169 -88.195)" fill="#e17865"/>
          <path id="Path_1447" data-name="Path 1447" d="M175.007,97.919l-.221.862c0,.006,0,.006-.006.011-.255.737-.658,1.458-.964,2.172a8.8,8.8,0,0,0-.658,4.021,2.362,2.362,0,0,1-.181.312,6.041,6.041,0,0,1-.675-.544c-.278-.227-.675-.21-.919-.357l3.641-7.316a1.094,1.094,0,0,1,.011.136A2.65,2.65,0,0,1,175.007,97.919Z" transform="translate(-108.211 -88.385)" fill="#242723"/>
          <path id="Path_1448" data-name="Path 1448" d="M189.359,91.84a4.582,4.582,0,0,1,.936,2.842,7.2,7.2,0,0,1-.533,3.6.075.075,0,0,1-.088.048c-.364-.009-.647-.072-.952.175a1.178,1.178,0,0,0-.45.834c-.024-.832.022-2.263,0-3.095a8.785,8.785,0,0,0-.354-2.163,3.608,3.608,0,0,0-1.492-1.845c-.174-.116-.3-.1-.417-.256a17.5,17.5,0,0,1,.19,1.8c.02.377-.17,1.425.009,1.724a8.039,8.039,0,0,0-3.414-3.17,9.374,9.374,0,0,1,1.129,2.337q-2.033-1.183-4-2.5a23.1,23.1,0,0,1,.8,3.029c-.947-.522-1.889-1.049-2.836-1.577a6.8,6.8,0,0,1-3.369-3.142.55.55,0,0,1-.006.1c0,.238-.011.471-.028.7a4.223,4.223,0,0,1-.227.873c-.255.737-.658,1.458-.964,2.172a8.977,8.977,0,0,0-.416,4.092c.006.136-.225.207-.208.343a1.5,1.5,0,0,1-.216-.1,6.036,6.036,0,0,1-.675-.544c-.278-.227-.675-.21-.919-.357a.4.4,0,0,1-.108-.085,3.377,3.377,0,0,1-.357-1.225,14,14,0,0,1-.221-3.125,19.656,19.656,0,0,1,.352-4.208,6.448,6.448,0,0,1,1.934-3.516,1.425,1.425,0,0,1,1.52-.38,2.857,2.857,0,0,1,1.962-1.781c3.063-1.038,6.842-.335,9.814-1.69a6.343,6.343,0,0,1-1.465,2.274,3.57,3.57,0,0,1,2.944.669,9.094,9.094,0,0,1,2.314,2.41c.947,1.94.783,3.635.851,5.859C190.193,92.526,189.688,92.22,189.359,91.84Z" transform="translate(-107.687 -81.75)" fill="#242723"/>
          <g id="Group_2467" data-name="Group 2467" transform="translate(66.155 14.5)">
            <path id="Path_1449" data-name="Path 1449" d="M194.208,112.671c-.039.56.188.93.5.951s.585-.314.624-.873-.192-.879-.5-.9S194.246,112.111,194.208,112.671Z" transform="translate(-184.244 -109.277)" fill="#242723"/>
            <path id="Path_1450" data-name="Path 1450" d="M178.336,108.381a2.272,2.272,0,0,1,3.411-.505" transform="translate(-177.376 -107.316)" fill="none" stroke="#5d1d19" stroke-miterlimit="10" stroke-width="1"/>
            <path id="Path_1451" data-name="Path 1451" d="M195.81,108.381a2.272,2.272,0,0,0-3.411-.505" transform="translate(-183.463 -107.316)" fill="none" stroke="#5d1d19" stroke-miterlimit="10" stroke-width="1"/>
            <path id="Path_1452" data-name="Path 1452" d="M181.576,112.737c.031.573.307.921.624.9s.555-.392.525-.965-.3-.868-.622-.851S181.545,112.164,181.576,112.737Z" transform="translate(-178.777 -109.267)" fill="#242723"/>
            <path id="Path_1453" data-name="Path 1453" d="M186.993,125.961c-.874-.013-2.131-1.165-1.731-2.076a.464.464,0,0,1,.172-.22.588.588,0,0,1,.335-.048c.44.025.882.058,1.323.065,1.188.018,1.918-.095,1.91.416A2.293,2.293,0,0,1,186.993,125.961Z" transform="translate(-180.34 -114.371)" fill="#f8f5ec"/>
            <path id="Path_1454" data-name="Path 1454" d="M180.27,118.725c-.03.5-.866.857-1.868.8s-1.789-.514-1.759-1.014.866-.857,1.868-.8S180.3,118.225,180.27,118.725Z" transform="translate(-176.643 -111.813)" fill="#d86859"/>
            <path id="Path_1455" data-name="Path 1455" d="M197.395,119.35c-.03.5-.866.857-1.868.8s-1.789-.514-1.759-1.014.866-.857,1.868-.8S197.424,118.85,197.395,119.35Z" transform="translate(-184.055 -112.083)" fill="#d86859"/>
            <path id="Path_1456" data-name="Path 1456" d="M188.832,113.578a4.176,4.176,0,0,0,1.177,3s-1.257.551-1.242.927" transform="translate(-181.89 -110.027)" fill="none" stroke="#bc3c3c" stroke-miterlimit="10" stroke-width="1"/>
          </g>
          <path id="Path_1457" data-name="Path 1457" d="M182.295,131.663a3.485,3.485,0,0,0,1.6.9,6.145,6.145,0,0,0,.975.194,6.6,6.6,0,0,0,4.332-1.016" transform="translate(-112.935 -103.354)" fill="none" stroke="#d86859" stroke-miterlimit="10" stroke-width="1"/>
          <path id="Path_1458" data-name="Path 1458" d="M132.621,213.019a5.623,5.623,0,0,0,.944,1.525" transform="translate(-91.434 -138.569)" fill="none" stroke="#d86859" stroke-miterlimit="10" stroke-width="1"/>
          <path id="Path_1459" data-name="Path 1459" d="M140.578,175.016a8.061,8.061,0,0,0,.826,2.344" transform="translate(-94.878 -122.12)" fill="none" stroke="#d86859" stroke-miterlimit="10" stroke-width="1"/>
          <path id="Path_1460" data-name="Path 1460" d="M232.006,174.46a5.192,5.192,0,0,1-2.393,2.743" transform="translate(-133.416 -121.879)" fill="none" stroke="#d86859" stroke-miterlimit="10" stroke-width="1"/>
          <path id="Path_1461" data-name="Path 1461" d="M231.3,220.706a8.316,8.316,0,0,0,1.265.894" transform="translate(-134.146 -141.896)" fill="none" stroke="#d86859" stroke-miterlimit="10" stroke-width="1"/>
          <path id="Path_1462" data-name="Path 1462" d="M125.988,260.266a1.1,1.1,0,0,1-1.12-.615" transform="translate(-88.078 -158.753)" fill="none" stroke="#d86859" stroke-miterlimit="10" stroke-width="1"/>
          <path id="Path_1463" data-name="Path 1463" d="M248.192,260.145a.181.181,0,0,0-.141.268,3.614,3.614,0,0,1,1.185-.765" transform="translate(-141.386 -158.752)" fill="none" stroke="#d86859" stroke-miterlimit="10" stroke-width="1"/>
          <path id="Path_1464" data-name="Path 1464" d="M173.282,219.732a5.676,5.676,0,0,1,2.572.553c.728.454,1.027,1.519.323,2a2.166,2.166,0,0,1-.974.285,13.038,13.038,0,0,1-7.109-1.195,11.383,11.383,0,0,1-3.1-2.218c-.488-.494-3.716-3.409-.278-1.809a28.537,28.537,0,0,0,4.078,1.589A23.031,23.031,0,0,0,173.282,219.732Z" transform="translate(-104.648 -140.238)" fill="#1c1b1b"/>
          <path id="Path_1465" data-name="Path 1465" d="M204.534,211.643a6.308,6.308,0,0,1-1.4.615,5.346,5.346,0,0,1-1.21.14c-.319.008-.712.054-.831.35a.52.52,0,0,0,.22.592,1.024,1.024,0,0,0,.656.134,3.626,3.626,0,0,0,1.079-.3,15.658,15.658,0,0,0,4.2-2.537,2.613,2.613,0,0,0,.788-.886c-.5.018-1.237.642-1.687.894Q205.443,211.148,204.534,211.643Z" transform="translate(-121.06 -137.154)" fill="#1c1b1b"/>
          <path id="Path_1466" data-name="Path 1466" d="M181.945,280.988a4.49,4.49,0,0,0,2.421,1.775,13.366,13.366,0,0,0,3.009.528" transform="translate(-112.783 -167.989)" fill="none" stroke="#fff" stroke-miterlimit="10" stroke-width="1"/>
        </g>
      </g>
      <g id="Group_2482" data-name="Group 2482" transform="translate(364.352 47.709)">
        <path id="Path_1312" data-name="Path 1312" d="M712.7,379.081a23.8,23.8,0,0,1,4.633.294c1.188.24,2.21.664,3.416.879a36.082,36.082,0,0,0,6.484.064c2.177-.021,4.747.405,5.31,1.469.665,1.258-1.92,2.339-4.329,2.8a57.291,57.291,0,0,1-7.193.811c-4.846.293-9.741.29-14.621.287l-45.514-.03c-4.973,0-10.365-.077-14.259-1.642-2.573-1.034-4.416-3.414-.957-4.5,3.16-.991,9.677-.351,13.164-.356l34.307-.048Z" transform="translate(0 -63.787)" fill="#9cacbf"/>
        <g id="Group_2437" data-name="Group 2437" transform="translate(652.396 246.791)">
          <g id="Group_2432" data-name="Group 2432" transform="translate(9.255 31.387)">
            <ellipse id="Ellipse_136" data-name="Ellipse 136" cx="5.247" cy="6.038" rx="5.247" ry="6.038" fill="#a6a09f"/>
            <ellipse id="Ellipse_137" data-name="Ellipse 137" cx="5.247" cy="6.038" rx="5.247" ry="6.038" transform="translate(0.863)"/>
            <ellipse id="Ellipse_138" data-name="Ellipse 138" cx="2.041" cy="2.348" rx="2.041" ry="2.348" transform="translate(4.069 3.69)" fill="none" stroke="#135e7f" stroke-miterlimit="10" stroke-width="0.741"/>
            <rect id="Rectangle_1586" data-name="Rectangle 1586" width="10.111" height="2.085" rx="1.042" transform="translate(5.199 4.912)" fill="#f0f8fe"/>
            <ellipse id="Ellipse_139" data-name="Ellipse 139" cx="5.247" cy="6.038" rx="5.247" ry="6.038" transform="translate(13.034)" fill="#a6a09f"/>
            <ellipse id="Ellipse_140" data-name="Ellipse 140" cx="5.247" cy="6.038" rx="5.247" ry="6.038" transform="translate(13.897)"/>
            <ellipse id="Ellipse_141" data-name="Ellipse 141" cx="2.041" cy="2.348" rx="2.041" ry="2.348" transform="translate(17.104 3.69)" fill="none" stroke="#135e7f" stroke-miterlimit="10" stroke-width="0.741"/>
            <rect id="Rectangle_1587" data-name="Rectangle 1587" width="4.073" height="2.085" rx="1.042" transform="translate(18.162 4.912)" fill="#f0f8fe"/>
          </g>
          <g id="Group_2433" data-name="Group 2433" transform="translate(39.263 31.387)">
            <ellipse id="Ellipse_142" data-name="Ellipse 142" cx="5.247" cy="6.038" rx="5.247" ry="6.038" fill="#a6a09f"/>
            <ellipse id="Ellipse_143" data-name="Ellipse 143" cx="5.247" cy="6.038" rx="5.247" ry="6.038" transform="translate(0.863)"/>
            <ellipse id="Ellipse_144" data-name="Ellipse 144" cx="2.041" cy="2.348" rx="2.041" ry="2.348" transform="translate(4.069 3.69)" fill="none" stroke="#135e7f" stroke-miterlimit="10" stroke-width="0.741"/>
            <rect id="Rectangle_1588" data-name="Rectangle 1588" width="10.111" height="2.085" rx="1.042" transform="translate(5.199 4.912)" fill="#f0f8fe"/>
            <ellipse id="Ellipse_145" data-name="Ellipse 145" cx="5.247" cy="6.038" rx="5.247" ry="6.038" transform="translate(13.034)" fill="#a6a09f"/>
            <ellipse id="Ellipse_146" data-name="Ellipse 146" cx="5.247" cy="6.038" rx="5.247" ry="6.038" transform="translate(13.897)"/>
            <ellipse id="Ellipse_147" data-name="Ellipse 147" cx="2.041" cy="2.348" rx="2.041" ry="2.348" transform="translate(17.104 3.69)" fill="none" stroke="#135e7f" stroke-miterlimit="10" stroke-width="0.741"/>
            <rect id="Rectangle_1589" data-name="Rectangle 1589" width="4.073" height="2.085" rx="1.042" transform="translate(18.162 4.912)" fill="#f0f8fe"/>
          </g>
          <g id="Group_2434" data-name="Group 2434" transform="translate(40.756 0)">
            <ellipse id="Ellipse_148" data-name="Ellipse 148" cx="4.048" cy="4.658" rx="4.048" ry="4.658" fill="#a6a09f"/>
            <ellipse id="Ellipse_149" data-name="Ellipse 149" cx="4.048" cy="4.658" rx="4.048" ry="4.658" transform="translate(0.665)"/>
            <ellipse id="Ellipse_150" data-name="Ellipse 150" cx="1.574" cy="1.812" rx="1.574" ry="1.812" transform="translate(3.139 2.847)" fill="none" stroke="#135e7f" stroke-miterlimit="10" stroke-width="0.572"/>
            <rect id="Rectangle_1590" data-name="Rectangle 1590" width="7.801" height="1.608" rx="0.804" transform="translate(4.011 3.79)" fill="#f0f8fe"/>
            <ellipse id="Ellipse_151" data-name="Ellipse 151" cx="4.048" cy="4.658" rx="4.048" ry="4.658" transform="translate(10.056)" fill="#a6a09f"/>
            <ellipse id="Ellipse_152" data-name="Ellipse 152" cx="4.048" cy="4.658" rx="4.048" ry="4.658" transform="translate(10.722)"/>
            <ellipse id="Ellipse_153" data-name="Ellipse 153" cx="1.574" cy="1.812" rx="1.574" ry="1.812" transform="translate(13.196 2.847)" fill="none" stroke="#135e7f" stroke-miterlimit="10" stroke-width="0.572"/>
            <rect id="Rectangle_1591" data-name="Rectangle 1591" width="3.143" height="1.608" rx="0.804" transform="translate(14.012 3.79)" fill="#f0f8fe"/>
          </g>
          <g id="Group_2435" data-name="Group 2435" transform="translate(11.956 0)">
            <ellipse id="Ellipse_154" data-name="Ellipse 154" cx="4.048" cy="4.658" rx="4.048" ry="4.658" fill="#a6a09f"/>
            <ellipse id="Ellipse_155" data-name="Ellipse 155" cx="4.048" cy="4.658" rx="4.048" ry="4.658" transform="translate(0.666)"/>
            <ellipse id="Ellipse_156" data-name="Ellipse 156" cx="1.574" cy="1.812" rx="1.574" ry="1.812" transform="translate(3.139 2.847)" fill="none" stroke="#135e7f" stroke-miterlimit="10" stroke-width="0.572"/>
            <rect id="Rectangle_1592" data-name="Rectangle 1592" width="7.801" height="1.608" rx="0.804" transform="translate(4.011 3.79)" fill="#f0f8fe"/>
            <ellipse id="Ellipse_157" data-name="Ellipse 157" cx="4.048" cy="4.658" rx="4.048" ry="4.658" transform="translate(10.056)" fill="#a6a09f"/>
            <ellipse id="Ellipse_158" data-name="Ellipse 158" cx="4.048" cy="4.658" rx="4.048" ry="4.658" transform="translate(10.722)"/>
            <ellipse id="Ellipse_159" data-name="Ellipse 159" cx="1.574" cy="1.812" rx="1.574" ry="1.812" transform="translate(13.196 2.847)" fill="none" stroke="#135e7f" stroke-miterlimit="10" stroke-width="0.572"/>
            <rect id="Rectangle_1593" data-name="Rectangle 1593" width="3.143" height="1.608" rx="0.804" transform="translate(14.012 3.79)" fill="#f0f8fe"/>
          </g>
          <g id="Group_2436" data-name="Group 2436" transform="translate(0 7.985)">
            <rect id="Rectangle_1594" data-name="Rectangle 1594" width="63.637" height="3.104" transform="translate(3.622 33.759)" fill="#9cacbf"/>
            <rect id="Rectangle_1595" data-name="Rectangle 1595" width="55.273" height="3.104" transform="translate(7.89 0.259)" fill="#9cacbf"/>
            <path id="Path_1313" data-name="Path 1313" d="M660.441,326.328l8.278-64.1,5.691,64.327" transform="translate(-660.441 -262.224)" fill="none" stroke="#000" stroke-linecap="round" stroke-linejoin="round" stroke-width="2"/>
            <path id="Path_1314" data-name="Path 1314" d="M785.077,326.328l-8.278-64.1-5.691,64.327" transform="translate(-713.852 -262.224)" fill="none" stroke="#000" stroke-linecap="round" stroke-linejoin="round" stroke-width="2"/>
          </g>
        </g>
      </g>
    </g>
  </g>
</svg>
